<?xml version="1.0" encoding="UTF-8"?>
<!DOCTYPE svg PUBLIC "-//W3C//DTD SVG 1.1//EN" "http://www.w3.org/Graphics/SVG/1.1/DTD/svg11.dtd">
<!-- Creator: CorelDRAW 2021 (64-Bit) -->
<svg xmlns="http://www.w3.org/2000/svg" xml:space="preserve" width="58.423mm" height="58.423mm" version="1.1" style="shape-rendering:geometricPrecision; text-rendering:geometricPrecision; image-rendering:optimizeQuality; fill-rule:evenodd; clip-rule:evenodd"
viewBox="0 0 179.13 179.13"
 xmlns:xlink="http://www.w3.org/1999/xlink"
 xmlns:xodm="http://www.corel.com/coreldraw/odm/2003">
 <defs>
  <style type="text/css">
   <![CDATA[
    .fil2 {fill:#FEFEFE}
    .fil3 {fill:#FEFEFE;fill-rule:nonzero}
    .fil1 {fill:#FEFEFE;fill-opacity:0.301961}
    .fil0 {fill:#FEFEFE;fill-opacity:0.501961}
   ]]>
  </style>
   <mask id="id0">
  <linearGradient id="id1" gradientUnits="userSpaceOnUse" x1="-0.36" y1="-2.42" x2="58.54" y2="58.65">
   <stop offset="0" style="stop-opacity:1; stop-color:white"/>
   <stop offset="1" style="stop-opacity:0; stop-color:white"/>
  </linearGradient>
    <rect style="fill:url(#id1)" x="-0.27" y="-0.27" width="179.67" height="179.67"/>
   </mask>
   <mask id="id2">
  <linearGradient id="id3" gradientUnits="userSpaceOnUse" x1="179.49" y1="181.56" x2="120.59" y2="120.48">
   <stop offset="0" style="stop-opacity:1; stop-color:white"/>
   <stop offset="1" style="stop-opacity:0; stop-color:white"/>
  </linearGradient>
    <rect style="fill:url(#id3)" x="-0.27" y="-0.27" width="179.67" height="179.67"/>
   </mask>
 </defs>
 <g id="Layer_x0020_1">
  <metadata id="CorelCorpID_0Corel-Layer"/>
  <path class="fil0" d="M15.94 0l147.25 0c8.77,0 15.94,7.17 15.94,15.94l0 147.25c0,8.77 -7.17,15.94 -15.94,15.94l-147.25 0c-8.77,0 -15.94,-7.17 -15.94,-15.94l0 -147.25c0,-8.77 7.17,-15.94 15.94,-15.94zm0 1.75c-7.8,0 -14.19,6.39 -14.19,14.19l0 147.25c0,7.8 6.39,14.19 14.19,14.19l147.25 0c7.8,0 14.19,-6.39 14.19,-14.19l0 -147.25c0,-7.8 -6.39,-14.19 -14.19,-14.19l-147.25 0z"/>
  <path class="fil1" d="M15.94 1.75c-7.8,0 -14.19,6.39 -14.19,14.19l0 147.25c0,7.8 6.39,14.19 14.19,14.19l147.25 0c7.8,0 14.19,-6.39 14.19,-14.19l0 -147.25c0,-7.8 -6.39,-14.19 -14.19,-14.19l-147.25 0z"/>
  <path class="fil2" style="mask:url(#id0)" d="M15.94 0l147.25 0c8.77,0 15.94,7.17 15.94,15.94l0 147.25c0,8.77 -7.17,15.94 -15.94,15.94l-147.25 0c-8.77,0 -15.94,-7.17 -15.94,-15.94l0 -147.25c0,-8.77 7.17,-15.94 15.94,-15.94zm0 1.75c-7.8,0 -14.19,6.39 -14.19,14.19l0 147.25c0,7.8 6.39,14.19 14.19,14.19l147.25 0c7.8,0 14.19,-6.39 14.19,-14.19l0 -147.25c0,-7.8 -6.39,-14.19 -14.19,-14.19l-147.25 0z"/>
  <path class="fil2" style="mask:url(#id2)" d="M163.19 179.13l-147.25 0c-8.77,0 -15.94,-7.17 -15.94,-15.94l0 -147.25c0,-8.77 7.17,-15.94 15.94,-15.94l147.25 0c8.77,0 15.94,7.17 15.94,15.94l0 147.25c0,8.77 -7.17,15.94 -15.94,15.94zm0 -1.75c7.8,0 14.19,-6.39 14.19,-14.19l0 -147.25c0,-7.8 -6.39,-14.19 -14.19,-14.19l-147.25 0c-7.8,0 -14.19,6.39 -14.19,14.19l0 147.25c0,7.8 6.39,14.19 14.19,14.19l147.25 0z"/>
  <polygon class="fil3" points="21.69,44.24 33.09,24.78 33.09,24.71 22.39,24.71 22.39,22.2 37.3,22.2 37.3,22.81 25.89,42.27 25.89,42.33 37.48,42.33 37.48,44.85 21.69,44.85 "/>
  <path id="_1" class="fil3" d="M47.39 45.1c-1.52,0 -2.87,-0.35 -4.07,-1.04 -1.19,-0.69 -2.13,-1.67 -2.8,-2.95 -0.67,-1.28 -1.01,-2.75 -1.01,-4.44 0,-1.67 0.33,-3.14 0.98,-4.4 0.65,-1.26 1.55,-2.24 2.69,-2.93 1.13,-0.69 2.42,-1.03 3.84,-1.03 1.39,0 2.62,0.32 3.7,0.96 1.09,0.64 1.94,1.53 2.54,2.66 0.61,1.13 0.91,2.41 0.91,3.85 0,0.64 -0.06,1.3 -0.18,1.97l-11.84 0c0.13,0.99 0.42,1.85 0.89,2.59 0.47,0.73 1.09,1.31 1.85,1.71 0.77,0.4 1.63,0.6 2.61,0.6 0.89,0 1.69,-0.16 2.4,-0.47 0.71,-0.31 1.34,-0.7 1.87,-1.16l1.02 2.4c-0.68,0.5 -1.49,0.91 -2.43,1.22 -0.94,0.31 -1.94,0.47 -2.99,0.47zm4.21 -9.5c0,-0.88 -0.18,-1.69 -0.56,-2.43 -0.37,-0.73 -0.91,-1.32 -1.61,-1.75 -0.7,-0.43 -1.5,-0.65 -2.41,-0.65 -0.85,0 -1.62,0.2 -2.31,0.59 -0.69,0.39 -1.26,0.95 -1.7,1.68 -0.44,0.73 -0.72,1.58 -0.84,2.55l9.44 0z"/>
  <path id="_2" class="fil3" d="M63.68 45.1c-1.21,0 -2.27,-0.26 -3.19,-0.78 -0.92,-0.52 -1.63,-1.26 -2.14,-2.24 -0.51,-0.98 -0.76,-2.14 -0.76,-3.48l0 -10.05 2.64 0 0 9.93c0,0.89 0.17,1.65 0.51,2.28 0.34,0.62 0.81,1.09 1.4,1.41 0.59,0.31 1.25,0.47 1.99,0.47 0.82,0 1.55,-0.18 2.19,-0.55 0.64,-0.37 1.14,-0.87 1.49,-1.51 0.36,-0.64 0.53,-1.33 0.53,-2.09l0 -9.93 2.64 0 0 11.68c0,0.5 0.04,0.9 0.11,1.21 0.07,0.3 0.2,0.55 0.39,0.75 0.19,0.19 0.47,0.36 0.82,0.51l-1.01 2.4c-0.62,-0.3 -1.15,-0.66 -1.58,-1.09 -0.43,-0.42 -0.71,-0.86 -0.84,-1.31l-0.06 0c-0.53,0.72 -1.23,1.3 -2.1,1.74 -0.87,0.44 -1.88,0.66 -3.03,0.66z"/>
  <path id="_3" class="fil3" d="M80.07 45.1c-0.92,0 -1.78,-0.18 -2.57,-0.53 -0.79,-0.36 -1.46,-0.82 -2,-1.4 -0.55,-0.58 -0.93,-1.2 -1.15,-1.85l2.4 -0.98c0.23,0.63 0.65,1.18 1.26,1.63 0.61,0.45 1.3,0.68 2.06,0.68 0.5,0 0.97,-0.09 1.41,-0.28 0.44,-0.19 0.8,-0.46 1.07,-0.81 0.27,-0.36 0.41,-0.76 0.41,-1.21 0,-0.52 -0.18,-0.97 -0.53,-1.34 -0.36,-0.37 -0.77,-0.66 -1.24,-0.88 -0.47,-0.22 -1.05,-0.44 -1.72,-0.66l-0.33 -0.11c-0.79,-0.27 -1.5,-0.57 -2.11,-0.91 -0.62,-0.34 -1.15,-0.82 -1.59,-1.42 -0.44,-0.6 -0.66,-1.35 -0.66,-2.25 0,-0.91 0.24,-1.71 0.71,-2.38 0.47,-0.68 1.1,-1.19 1.87,-1.54 0.78,-0.36 1.62,-0.53 2.52,-0.53 0.84,0 1.61,0.15 2.3,0.45 0.69,0.3 1.28,0.7 1.76,1.19 0.48,0.49 0.85,1.03 1.11,1.62l-2.4 1.01c-0.65,-1.25 -1.57,-1.87 -2.77,-1.87 -0.7,0 -1.29,0.18 -1.78,0.55 -0.49,0.37 -0.74,0.87 -0.74,1.51 0,0.52 0.16,0.96 0.49,1.3 0.33,0.34 0.7,0.6 1.11,0.78 0.41,0.18 0.98,0.39 1.68,0.62 0.85,0.28 1.61,0.58 2.28,0.91 0.67,0.34 1.28,0.82 1.81,1.46 0.54,0.64 0.8,1.43 0.8,2.39 0,0.92 -0.25,1.75 -0.76,2.49 -0.5,0.73 -1.17,1.32 -2,1.74 -0.83,0.42 -1.74,0.63 -2.71,0.63z"/>
  <path id="_4" class="fil3" d="M104.21 22.2l2.28 0 9.38 22.66 -2.89 0 -2.46 -5.93 -10.33 0 -2.46 5.93 -2.89 0 9.38 -22.66zm5.32 14.2l-4.12 -10.43 -0.13 0 -4.12 10.43 8.36 0z"/>
  <path id="_5" class="fil3" d="M118.36 28.56l2.64 0 0 16.29 -2.64 0 0 -16.29zm1.32 -2.62c-0.37,0 -0.7,-0.09 -1.01,-0.27 -0.3,-0.18 -0.55,-0.42 -0.72,-0.72 -0.18,-0.3 -0.27,-0.64 -0.27,-1.01 0,-0.37 0.09,-0.71 0.27,-1.01 0.18,-0.3 0.42,-0.55 0.72,-0.72 0.3,-0.18 0.63,-0.27 1.01,-0.27 0.36,0 0.69,0.09 1,0.27 0.31,0.18 0.55,0.42 0.73,0.73 0.18,0.31 0.27,0.64 0.27,1 0,0.36 -0.09,0.69 -0.27,1 -0.18,0.31 -0.42,0.55 -0.73,0.73 -0.3,0.18 -0.64,0.27 -1,0.27z"/>
  <path class="fil3" d="M27.27 97.25c-1.06,0 -2.03,-0.22 -2.93,-0.66 -0.89,-0.44 -1.6,-1.06 -2.12,-1.86 -0.53,-0.8 -0.79,-1.71 -0.79,-2.73l2.2 -0.05c0,0.65 0.16,1.22 0.47,1.72 0.31,0.5 0.75,0.89 1.3,1.17 0.55,0.28 1.17,0.41 1.84,0.41 0.69,0 1.32,-0.15 1.88,-0.44 0.56,-0.29 1,-0.7 1.33,-1.2 0.32,-0.51 0.48,-1.08 0.48,-1.7 0,-0.64 -0.17,-1.2 -0.5,-1.7 -0.33,-0.5 -0.82,-0.88 -1.46,-1.17 -0.64,-0.28 -1.4,-0.43 -2.29,-0.43l-0.75 0 0 -1.9 0.85 0c0.67,0 1.26,-0.14 1.77,-0.42 0.51,-0.28 0.91,-0.66 1.2,-1.14 0.28,-0.48 0.43,-1.01 0.43,-1.59 0,-0.83 -0.26,-1.49 -0.79,-1.97 -0.53,-0.48 -1.23,-0.72 -2.11,-0.72 -0.6,0 -1.13,0.12 -1.58,0.34 -0.45,0.23 -0.79,0.55 -1.04,0.96 -0.24,0.41 -0.37,0.89 -0.37,1.43l-2.2 0c0,-0.88 0.21,-1.69 0.63,-2.41 0.42,-0.72 1.03,-1.29 1.8,-1.71 0.78,-0.41 1.68,-0.62 2.69,-0.62 0.97,0 1.85,0.19 2.64,0.57 0.79,0.38 1.41,0.92 1.86,1.61 0.45,0.69 0.68,1.48 0.68,2.36 0,0.97 -0.26,1.82 -0.78,2.56 -0.52,0.74 -1.18,1.27 -2,1.59 0.69,0.19 1.3,0.49 1.83,0.91 0.53,0.42 0.94,0.94 1.24,1.55 0.3,0.61 0.45,1.28 0.45,2 0,0.96 -0.25,1.84 -0.77,2.64 -0.51,0.8 -1.22,1.43 -2.11,1.89 -0.9,0.46 -1.89,0.7 -2.98,0.7z"/>
  <path id="_1_0" class="fil3" d="M41.61 97.25c-1.14,0 -2.17,-0.25 -3.08,-0.76 -0.91,-0.51 -1.63,-1.2 -2.15,-2.07 -0.52,-0.87 -0.78,-1.82 -0.78,-2.86 0,-0.86 0.16,-1.7 0.49,-2.51 0.33,-0.81 0.73,-1.56 1.22,-2.26l5.4 -7.74 2.59 0 -4.89 6.84c0.45,-0.16 0.97,-0.24 1.54,-0.24 1.03,0 1.97,0.25 2.84,0.74 0.87,0.49 1.55,1.18 2.06,2.06 0.51,0.88 0.77,1.87 0.77,2.96 0,1.1 -0.26,2.1 -0.78,2.99 -0.52,0.89 -1.24,1.59 -2.16,2.09 -0.92,0.5 -1.94,0.76 -3.07,0.76zm0 -2c0.73,0 1.38,-0.16 1.96,-0.49 0.58,-0.33 1.04,-0.78 1.36,-1.36 0.33,-0.58 0.49,-1.24 0.49,-1.96 0,-0.72 -0.16,-1.36 -0.49,-1.94 -0.33,-0.58 -0.78,-1.03 -1.36,-1.35 -0.58,-0.33 -1.23,-0.49 -1.96,-0.49 -0.73,0 -1.38,0.16 -1.96,0.49 -0.58,0.33 -1.04,0.78 -1.36,1.35 -0.33,0.58 -0.49,1.23 -0.49,1.94 0,0.73 0.16,1.38 0.49,1.96 0.33,0.58 0.78,1.03 1.36,1.36 0.58,0.33 1.23,0.49 1.96,0.49z"/>
  <path id="_2_1" class="fil3" d="M57.05 97.25c-1.3,0 -2.43,-0.34 -3.43,-1.01 -0.99,-0.67 -1.76,-1.62 -2.3,-2.85 -0.55,-1.23 -0.82,-2.66 -0.82,-4.3l0 -2c0,-1.64 0.27,-3.09 0.82,-4.34 0.55,-1.25 1.31,-2.21 2.3,-2.88 0.99,-0.68 2.13,-1.01 3.43,-1.01 1.29,0 2.42,0.33 3.4,0.99 0.98,0.67 1.74,1.62 2.28,2.86 0.54,1.24 0.81,2.7 0.81,4.38l0 2c0,1.66 -0.27,3.11 -0.81,4.34 -0.54,1.23 -1.3,2.17 -2.28,2.83 -0.98,0.66 -2.11,0.99 -3.4,0.99zm0.03 -2c0.85,0 1.6,-0.23 2.25,-0.69 0.64,-0.46 1.14,-1.13 1.5,-2.02 0.35,-0.88 0.53,-1.94 0.53,-3.18l0 -2.56c0,-1.25 -0.17,-2.33 -0.5,-3.21 -0.33,-0.89 -0.82,-1.56 -1.46,-2.03 -0.65,-0.46 -1.42,-0.7 -2.33,-0.7 -0.9,0 -1.68,0.23 -2.33,0.7 -0.65,0.47 -1.15,1.15 -1.49,2.03 -0.35,0.89 -0.52,1.95 -0.52,3.2l0 2.56c0,1.19 0.18,2.23 0.53,3.11 0.35,0.89 0.86,1.57 1.52,2.05 0.66,0.48 1.43,0.72 2.32,0.72z"/>
  <path id="_3_2" class="fil3" d="M73.36 79.06l5.81 0c1.62,0 3.07,0.36 4.34,1.07 1.28,0.72 2.27,1.74 2.98,3.07 0.72,1.33 1.08,2.9 1.08,4.7 0,1.84 -0.35,3.45 -1.07,4.84 -0.71,1.38 -1.7,2.45 -2.95,3.2 -1.25,0.75 -2.66,1.13 -4.24,1.13l-5.96 0 0 -18zm5.96 16c1.13,0 2.16,-0.3 3.08,-0.88 0.92,-0.59 1.65,-1.42 2.18,-2.51 0.53,-1.08 0.8,-2.34 0.8,-3.77 0,-1.39 -0.27,-2.61 -0.8,-3.64 -0.53,-1.03 -1.25,-1.83 -2.17,-2.38 -0.92,-0.55 -1.95,-0.83 -3.09,-0.83l-3.76 0 0 14 3.76 0z"/>
  <path id="_4_3" class="fil3" d="M96.05 97.25c-1.2,0 -2.28,-0.28 -3.23,-0.83 -0.95,-0.55 -1.69,-1.33 -2.22,-2.34 -0.53,-1.02 -0.8,-2.19 -0.8,-3.53 0,-1.33 0.26,-2.49 0.78,-3.5 0.52,-1 1.23,-1.78 2.13,-2.33 0.9,-0.55 1.92,-0.82 3.05,-0.82 1.1,0 2.08,0.25 2.94,0.76 0.86,0.51 1.54,1.21 2.02,2.11 0.48,0.9 0.73,1.92 0.73,3.06 0,0.51 -0.05,1.03 -0.15,1.56l-9.4 0c0.1,0.78 0.33,1.47 0.71,2.05 0.37,0.58 0.87,1.04 1.47,1.35 0.61,0.32 1.3,0.48 2.07,0.48 0.71,0 1.35,-0.13 1.91,-0.37 0.57,-0.25 1.06,-0.56 1.48,-0.92l0.81 1.9c-0.54,0.4 -1.18,0.72 -1.93,0.97 -0.75,0.25 -1.54,0.37 -2.37,0.37zm3.35 -7.55c0,-0.7 -0.15,-1.34 -0.45,-1.93 -0.3,-0.58 -0.72,-1.05 -1.28,-1.39 -0.55,-0.34 -1.19,-0.51 -1.92,-0.51 -0.68,0 -1.29,0.16 -1.84,0.47 -0.55,0.31 -1,0.76 -1.35,1.34 -0.35,0.58 -0.57,1.25 -0.67,2.03l7.5 0z"/>
  <path id="_5_4" class="fil3" d="M109.56 102.38c-0.89,0 -1.76,-0.12 -2.63,-0.36 -0.86,-0.24 -1.56,-0.54 -2.09,-0.89l0.81 -1.86c0.43,0.33 1,0.61 1.71,0.84 0.71,0.24 1.43,0.35 2.14,0.35 0.68,0 1.35,-0.13 1.98,-0.39 0.63,-0.26 1.15,-0.67 1.56,-1.22 0.41,-0.55 0.61,-1.25 0.61,-2.1l0 -1.71 -0.05 0c-0.52,0.65 -1.14,1.15 -1.86,1.51 -0.72,0.36 -1.5,0.54 -2.34,0.54 -1.04,0 -2.01,-0.28 -2.89,-0.82 -0.89,-0.54 -1.6,-1.32 -2.13,-2.33 -0.53,-1.01 -0.8,-2.18 -0.8,-3.49 0,-1.33 0.27,-2.49 0.81,-3.48 0.54,-0.99 1.25,-1.75 2.16,-2.28 0.9,-0.53 1.88,-0.79 2.95,-0.79 0.82,0 1.57,0.16 2.26,0.47 0.69,0.32 1.29,0.77 1.78,1.35l0.06 0 0 -1.63 2.1 0 0 12.55c0,1.28 -0.29,2.35 -0.87,3.21 -0.58,0.86 -1.34,1.49 -2.27,1.9 -0.94,0.41 -1.94,0.61 -3.02,0.61zm0.2 -7.23c0.76,0 1.44,-0.2 2.04,-0.6 0.6,-0.4 1.08,-0.97 1.41,-1.68 0.34,-0.72 0.5,-1.54 0.5,-2.45 0,-0.9 -0.17,-1.7 -0.5,-2.39 -0.34,-0.69 -0.81,-1.22 -1.4,-1.59 -0.6,-0.37 -1.28,-0.56 -2.05,-0.56 -0.79,0 -1.49,0.2 -2.09,0.58 -0.61,0.38 -1.08,0.93 -1.41,1.62 -0.33,0.7 -0.5,1.49 -0.5,2.39 0,0.9 0.17,1.71 0.51,2.42 0.34,0.71 0.82,1.27 1.42,1.67 0.61,0.4 1.3,0.6 2.07,0.6z"/>
  <path id="_6" class="fil3" d="M119.06 84.12l2.1 0 0 1.98 0.06 0c0.43,-0.66 0.98,-1.19 1.64,-1.58 0.66,-0.4 1.42,-0.59 2.28,-0.59 0.26,0 0.52,0.02 0.77,0.05 0.25,0.04 0.43,0.08 0.55,0.12l-0.85 2.03c-0.05,-0.02 -0.16,-0.05 -0.34,-0.07 -0.18,-0.02 -0.36,-0.03 -0.57,-0.03 -0.52,0 -1.06,0.15 -1.61,0.44 -0.55,0.3 -1.01,0.72 -1.38,1.27 -0.37,0.55 -0.55,1.19 -0.55,1.93l0 7.4 -2.1 0 0 -12.94z"/>
  <path id="_7" class="fil3" d="M132.88 97.25c-1.2,0 -2.28,-0.28 -3.23,-0.83 -0.95,-0.55 -1.69,-1.33 -2.22,-2.34 -0.53,-1.02 -0.8,-2.19 -0.8,-3.53 0,-1.33 0.26,-2.49 0.78,-3.5 0.52,-1 1.23,-1.78 2.13,-2.33 0.9,-0.55 1.92,-0.82 3.05,-0.82 1.1,0 2.08,0.25 2.94,0.76 0.86,0.51 1.54,1.21 2.02,2.11 0.48,0.9 0.73,1.92 0.73,3.06 0,0.51 -0.05,1.03 -0.15,1.56l-9.4 0c0.1,0.78 0.33,1.47 0.71,2.05 0.37,0.58 0.87,1.04 1.47,1.35 0.61,0.32 1.3,0.48 2.07,0.48 0.71,0 1.35,-0.13 1.91,-0.37 0.57,-0.25 1.06,-0.56 1.48,-0.92l0.81 1.9c-0.54,0.4 -1.18,0.72 -1.93,0.97 -0.75,0.25 -1.54,0.37 -2.37,0.37zm3.35 -7.55c0,-0.7 -0.15,-1.34 -0.45,-1.93 -0.3,-0.58 -0.72,-1.05 -1.28,-1.39 -0.55,-0.34 -1.19,-0.51 -1.92,-0.51 -0.68,0 -1.29,0.16 -1.84,0.47 -0.55,0.31 -1,0.76 -1.35,1.34 -0.35,0.58 -0.57,1.25 -0.67,2.03l7.5 0z"/>
  <path id="_8" class="fil3" d="M146.59 97.25c-1.2,0 -2.28,-0.28 -3.23,-0.83 -0.95,-0.55 -1.69,-1.33 -2.22,-2.34 -0.53,-1.02 -0.8,-2.19 -0.8,-3.53 0,-1.33 0.26,-2.49 0.78,-3.5 0.52,-1 1.23,-1.78 2.13,-2.33 0.9,-0.55 1.92,-0.82 3.05,-0.82 1.1,0 2.08,0.25 2.94,0.76 0.86,0.51 1.54,1.21 2.02,2.11 0.48,0.9 0.73,1.92 0.73,3.06 0,0.51 -0.05,1.03 -0.15,1.56l-9.4 0c0.1,0.78 0.33,1.47 0.71,2.05 0.37,0.58 0.87,1.04 1.47,1.35 0.61,0.32 1.3,0.48 2.07,0.48 0.71,0 1.35,-0.13 1.91,-0.37 0.57,-0.25 1.06,-0.56 1.48,-0.92l0.81 1.9c-0.54,0.4 -1.18,0.72 -1.93,0.97 -0.75,0.25 -1.54,0.37 -2.37,0.37zm3.35 -7.55c0,-0.7 -0.15,-1.34 -0.45,-1.93 -0.3,-0.58 -0.72,-1.05 -1.28,-1.39 -0.55,-0.34 -1.19,-0.51 -1.92,-0.51 -0.68,0 -1.29,0.16 -1.84,0.47 -0.55,0.31 -1,0.76 -1.35,1.34 -0.35,0.58 -0.57,1.25 -0.67,2.03l7.5 0z"/>
  <path id="_9" class="fil3" d="M22.44 107.08l5.35 0c1.08,0 2.05,0.2 2.91,0.62 0.85,0.42 1.53,1.01 2.02,1.79 0.49,0.78 0.74,1.69 0.74,2.74 0,1.15 -0.31,2.19 -0.93,3.11 -0.61,0.91 -1.47,1.58 -2.56,2l4.87 7.74 -2.54 0 -4.6 -7.3 -0.26 0 -2.81 0 0 7.3 -2.2 0 0 -18zm5.15 8.79c0.73,0 1.36,-0.14 1.92,-0.42 0.55,-0.28 0.98,-0.68 1.29,-1.2 0.31,-0.52 0.46,-1.13 0.46,-1.82 0,-0.69 -0.15,-1.29 -0.47,-1.79 -0.31,-0.5 -0.75,-0.89 -1.33,-1.15 -0.58,-0.27 -1.24,-0.4 -2.01,-0.4l-2.81 0 0 6.79 2.96 0z"/>
  <path id="_10" class="fil3" d="M45.45 125.27c-1.63,0 -3.13,-0.4 -4.52,-1.2 -1.39,-0.8 -2.49,-1.9 -3.31,-3.31 -0.83,-1.4 -1.23,-2.97 -1.23,-4.69 0,-1.75 0.42,-3.33 1.25,-4.73 0.83,-1.4 1.95,-2.49 3.34,-3.28 1.39,-0.78 2.9,-1.18 4.52,-1.18 1.02,0 2.01,0.15 2.97,0.45 0.96,0.3 1.81,0.71 2.53,1.24l-0.81 1.95c-0.54,-0.52 -1.22,-0.93 -2.05,-1.21 -0.83,-0.29 -1.69,-0.43 -2.59,-0.43 -1.19,0 -2.32,0.3 -3.39,0.91 -1.07,0.61 -1.93,1.45 -2.59,2.54 -0.65,1.09 -0.98,2.31 -0.98,3.68 0,1.34 0.31,2.57 0.94,3.68 0.63,1.11 1.47,1.98 2.54,2.62 1.07,0.64 2.23,0.96 3.48,0.96 0.9,0 1.78,-0.16 2.64,-0.49 0.85,-0.33 1.54,-0.75 2.05,-1.29l0.8 1.93c-0.73,0.58 -1.58,1.03 -2.57,1.36 -0.99,0.33 -2,0.5 -3.02,0.5z"/>
  <polygon id="_11" class="fil3" points="54,107.08 55.82,107.08 62.08,118.19 62.18,118.19 68.43,107.08 70.26,107.08 70.26,125.08 68.06,125.08 68.06,115.33 68.11,111.74 68.01,111.74 62.52,121.58 61.74,121.58 56.24,111.74 56.15,111.74 56.19,115.33 56.19,125.08 54,125.08 "/>
  <path id="_12" class="fil3" d="M85.87 125.27c-1.12,0 -2.14,-0.23 -3.06,-0.7 -0.92,-0.47 -1.64,-1.1 -2.16,-1.9 -0.53,-0.8 -0.79,-1.68 -0.79,-2.64 0,-1.03 0.3,-1.97 0.91,-2.83 0.61,-0.86 1.48,-1.68 2.61,-2.46l0.57 -0.39c-0.56,-0.71 -0.98,-1.36 -1.25,-1.95 -0.28,-0.59 -0.42,-1.18 -0.42,-1.77 0,-0.68 0.18,-1.31 0.54,-1.87 0.36,-0.57 0.86,-1.01 1.48,-1.33 0.62,-0.32 1.31,-0.48 2.06,-0.48 0.74,0 1.4,0.16 2,0.48 0.6,0.32 1.06,0.75 1.4,1.29 0.34,0.55 0.5,1.15 0.5,1.8 0,0.82 -0.26,1.61 -0.79,2.36 -0.53,0.75 -1.21,1.4 -2.04,1.97l-0.33 0.22 3.92 4.76c0.33,-0.65 0.57,-1.36 0.74,-2.12 0.17,-0.77 0.26,-1.56 0.26,-2.4l2.1 0c0,1.18 -0.15,2.29 -0.44,3.34 -0.29,1.05 -0.71,2.01 -1.27,2.88l2.96 3.58 -2.54 0 -1.67 -2.01c-0.72,0.7 -1.52,1.25 -2.42,1.63 -0.9,0.38 -1.85,0.58 -2.87,0.58zm-3.91 -5.25c0,0.61 0.17,1.18 0.5,1.69 0.33,0.52 0.8,0.93 1.4,1.24 0.6,0.31 1.28,0.47 2.03,0.47 0.77,0 1.49,-0.17 2.16,-0.5 0.68,-0.33 1.28,-0.8 1.83,-1.4l-4.71 -5.7 -0.7 0.47c-0.75,0.5 -1.36,1.06 -1.83,1.69 -0.46,0.63 -0.69,1.31 -0.69,2.05zm2.42 -9.43c0,0.45 0.14,0.92 0.42,1.4 0.28,0.48 0.67,1.04 1.18,1.68l0.4 -0.25c0.56,-0.34 1.02,-0.76 1.36,-1.26 0.35,-0.5 0.52,-1.01 0.52,-1.55 0,-0.55 -0.18,-0.99 -0.53,-1.33 -0.35,-0.34 -0.81,-0.5 -1.37,-0.5 -0.38,0 -0.71,0.08 -1.02,0.24 -0.3,0.16 -0.53,0.38 -0.7,0.65 -0.18,0.28 -0.26,0.58 -0.26,0.92z"/>
  <polygon id="_13" class="fil3" points="104.38,107.08 114.25,107.08 114.25,109.08 106.58,109.08 106.58,114.91 113.03,114.91 113.03,116.92 106.58,116.92 106.58,123.07 114.25,123.07 114.25,125.08 104.38,125.08 "/>
  <polygon id="_14" class="fil3" points="117.79,107.08 119.99,107.08 119.99,114.87 129.3,114.87 129.3,107.08 131.5,107.08 131.5,125.08 129.3,125.08 129.3,116.87 119.99,116.87 119.99,125.08 117.79,125.08 "/>
  <path id="_15" class="fil3" d="M135.7 107.08l5.35 0c1.08,0 2.05,0.2 2.91,0.62 0.85,0.42 1.53,1.01 2.02,1.79 0.49,0.78 0.74,1.69 0.74,2.74 0,1.15 -0.31,2.19 -0.93,3.11 -0.61,0.91 -1.47,1.58 -2.56,2l4.87 7.74 -2.54 0 -4.6 -7.3 -0.26 0 -2.81 0 0 7.3 -2.2 0 0 -18zm5.15 8.79c0.73,0 1.36,-0.14 1.92,-0.42 0.55,-0.28 0.98,-0.68 1.29,-1.2 0.31,-0.52 0.46,-1.13 0.46,-1.82 0,-0.69 -0.15,-1.29 -0.47,-1.79 -0.31,-0.5 -0.75,-0.89 -1.33,-1.15 -0.58,-0.27 -1.24,-0.4 -2.01,-0.4l-2.81 0 0 6.79 2.96 0z"/>
  <path id="_16" class="fil3" d="M22.44 135.09l5.15 0c1.17,0 2.18,0.22 3.06,0.65 0.88,0.44 1.55,1.05 2.03,1.85 0.48,0.8 0.72,1.73 0.72,2.8 0,1.07 -0.23,2.02 -0.7,2.86 -0.47,0.84 -1.13,1.5 -1.98,1.97 -0.86,0.48 -1.86,0.71 -2.99,0.71l-3.1 0 0 7.16 -2.2 0 0 -18zm5.15 8.84c0.73,0 1.36,-0.15 1.9,-0.43 0.55,-0.29 0.97,-0.7 1.27,-1.23 0.3,-0.53 0.44,-1.14 0.44,-1.83 0,-0.69 -0.15,-1.29 -0.45,-1.8 -0.31,-0.5 -0.74,-0.89 -1.31,-1.15 -0.57,-0.26 -1.23,-0.4 -2,-0.4l-2.81 0 0 6.84 2.96 0z"/>
  <path id="_17" class="fil3" d="M38.88 153.29c-1.76,0 -2.64,-1.1 -2.64,-3.3l0 -15.71 2.1 0 0 15.76c0,0.24 0.02,0.45 0.05,0.63 0.03,0.18 0.12,0.33 0.25,0.47 0.14,0.13 0.35,0.2 0.65,0.2 0.13,0 0.33,-0.03 0.59,-0.1l0 1.9c-0.24,0.1 -0.58,0.15 -1,0.15z"/>
  <path id="_18" class="fil3" d="M45.98 153.29c-0.8,0 -1.53,-0.15 -2.17,-0.46 -0.64,-0.31 -1.15,-0.76 -1.52,-1.34 -0.37,-0.58 -0.55,-1.27 -0.55,-2.06 0,-0.85 0.23,-1.57 0.7,-2.18 0.46,-0.6 1.14,-1.07 2.02,-1.38 0.88,-0.31 1.95,-0.47 3.19,-0.47l2.25 0 0 -0.56c0,-0.48 -0.05,-0.91 -0.14,-1.32 -0.09,-0.41 -0.34,-0.78 -0.74,-1.12 -0.4,-0.34 -1.01,-0.52 -1.83,-0.52 -0.6,0 -1.26,0.11 -1.98,0.34 -0.71,0.23 -1.32,0.51 -1.81,0.86l-0.8 -1.88c0.65,-0.38 1.41,-0.69 2.28,-0.92 0.87,-0.23 1.7,-0.35 2.51,-0.35 1.63,0 2.79,0.45 3.48,1.34 0.69,0.9 1.04,2.07 1.04,3.52l0 4.54c0,0.57 0.06,1 0.18,1.31 0.12,0.3 0.33,0.52 0.63,0.64l0.24 0.1 -0.8 1.9 -0.34 -0.15c-0.43,-0.19 -0.8,-0.45 -1.12,-0.8 -0.31,-0.35 -0.49,-0.7 -0.53,-1.06l-0.06 0c-0.38,0.6 -0.94,1.08 -1.66,1.45 -0.73,0.37 -1.54,0.55 -2.44,0.55zm-2.2 -3.86c0,0.42 0.11,0.78 0.33,1.09 0.21,0.31 0.51,0.55 0.88,0.72 0.37,0.16 0.78,0.24 1.24,0.24 0.56,0 1.13,-0.13 1.71,-0.37 0.58,-0.25 1.06,-0.61 1.43,-1.08 0.38,-0.47 0.57,-1.02 0.57,-1.65l0 -1.29 -2.15 0c-1.28,0 -2.26,0.2 -2.96,0.61 -0.7,0.41 -1.05,0.98 -1.05,1.73z"/>
  <path id="_19" class="fil3" d="M60.1 153.29c-0.8,0 -1.47,-0.16 -2.02,-0.48 -0.55,-0.32 -0.96,-0.76 -1.25,-1.33 -0.28,-0.57 -0.42,-1.23 -0.42,-1.98l0 -7.45 -2.15 0 0 -1.91 2.15 0 0 -4.16 2.1 0 0 4.16 3.2 0 0 1.91 -3.2 0 0 7.23c0,0.66 0.15,1.17 0.45,1.52 0.3,0.35 0.69,0.53 1.19,0.53 0.31,0 0.66,-0.1 1.05,-0.29l0.8 1.86c-0.65,0.26 -1.29,0.39 -1.9,0.39z"/>
  <path id="_20" class="fil3" d="M63.3 140.15l2.27 0 0 -2.32c0,-0.73 0.15,-1.38 0.45,-1.95 0.3,-0.57 0.73,-1.01 1.3,-1.32 0.57,-0.31 1.24,-0.47 2.02,-0.47 0.38,0 0.72,0.03 1.01,0.1 0.29,0.06 0.58,0.16 0.87,0.29l-0.78 1.86c-0.26,-0.19 -0.63,-0.29 -1.1,-0.29 -0.53,0 -0.94,0.18 -1.23,0.53 -0.29,0.35 -0.43,0.84 -0.43,1.48l0 2.1 3.2 0 0 1.91 -3.2 0 0 11.04 -2.1 0 0 -11.04 -2.27 0 0 -1.91z"/>
  <path id="_21" class="fil3" d="M77.86 153.29c-1.2,0 -2.28,-0.28 -3.24,-0.85 -0.95,-0.57 -1.7,-1.37 -2.25,-2.39 -0.54,-1.02 -0.81,-2.19 -0.81,-3.5 0,-1.29 0.27,-2.43 0.81,-3.43 0.54,-1 1.29,-1.78 2.25,-2.33 0.96,-0.55 2.04,-0.83 3.24,-0.83 1.21,0 2.3,0.28 3.26,0.83 0.95,0.56 1.71,1.34 2.24,2.33 0.54,1 0.81,2.14 0.81,3.43 0,1.3 -0.28,2.46 -0.82,3.49 -0.55,1.03 -1.3,1.82 -2.26,2.39 -0.95,0.57 -2.03,0.85 -3.23,0.85zm0 -1.95c0.8,0 1.51,-0.2 2.14,-0.6 0.63,-0.4 1.13,-0.96 1.48,-1.69 0.35,-0.73 0.53,-1.56 0.53,-2.5 0,-0.92 -0.18,-1.73 -0.53,-2.44 -0.35,-0.7 -0.85,-1.25 -1.48,-1.63 -0.63,-0.38 -1.34,-0.58 -2.14,-0.58 -0.8,0 -1.51,0.19 -2.14,0.58 -0.63,0.38 -1.12,0.93 -1.48,1.63 -0.36,0.7 -0.54,1.52 -0.54,2.44 0,0.94 0.18,1.78 0.53,2.5 0.35,0.73 0.84,1.29 1.47,1.69 0.63,0.4 1.35,0.6 2.15,0.6z"/>
  <path id="_22" class="fil3" d="M86.82 140.15l2.1 0 0 1.98 0.06 0c0.43,-0.66 0.98,-1.19 1.64,-1.58 0.66,-0.4 1.42,-0.59 2.28,-0.59 0.26,0 0.52,0.02 0.77,0.05 0.25,0.04 0.43,0.08 0.55,0.12l-0.85 2.03c-0.05,-0.02 -0.16,-0.05 -0.34,-0.07 -0.18,-0.02 -0.36,-0.03 -0.57,-0.03 -0.52,0 -1.06,0.15 -1.61,0.44 -0.55,0.3 -1.01,0.72 -1.38,1.27 -0.37,0.55 -0.55,1.19 -0.55,1.93l0 7.4 -2.1 0 0 -12.94z"/>
  <path id="_23" class="fil3" d="M95.98 140.15l2.1 0 0 1.54 0.06 0c0.39,-0.55 0.89,-0.98 1.49,-1.28 0.6,-0.3 1.27,-0.45 1.99,-0.45 0.76,0 1.45,0.16 2.05,0.49 0.6,0.33 1.06,0.78 1.4,1.34l0.06 0c0.42,-0.6 0.98,-1.06 1.67,-1.37 0.69,-0.31 1.43,-0.46 2.23,-0.46 0.94,0 1.74,0.2 2.41,0.62 0.67,0.41 1.18,0.97 1.52,1.68 0.34,0.71 0.51,1.51 0.51,2.4l0 8.45 -2.1 0 0 -8.01c0,-1.03 -0.24,-1.81 -0.72,-2.36 -0.48,-0.55 -1.14,-0.82 -1.97,-0.82 -0.53,0 -1.01,0.12 -1.45,0.35 -0.44,0.24 -0.79,0.59 -1.06,1.07 -0.26,0.48 -0.4,1.06 -0.4,1.75l0 8.01 -2.1 0 0 -8.01c0,-1.03 -0.25,-1.81 -0.73,-2.36 -0.49,-0.55 -1.15,-0.82 -1.98,-0.82 -0.53,0 -1.01,0.13 -1.45,0.37 -0.43,0.25 -0.78,0.61 -1.04,1.1 -0.26,0.5 -0.39,1.1 -0.39,1.81l0 7.91 -2.1 0 0 -12.94z"/>
 </g>
</svg>
