<?xml version="1.0" encoding="UTF-8"?>
<!DOCTYPE svg PUBLIC "-//W3C//DTD SVG 1.1//EN" "http://www.w3.org/Graphics/SVG/1.1/DTD/svg11.dtd">
<!-- Creator: CorelDRAW 2021 (64-Bit) -->
<svg xmlns="http://www.w3.org/2000/svg" xml:space="preserve" width="35.0171mm" height="14.3208mm" version="1.1" style="shape-rendering:geometricPrecision; text-rendering:geometricPrecision; image-rendering:optimizeQuality; fill-rule:evenodd; clip-rule:evenodd"
viewBox="0 0 1343.97 549.64"
 xmlns:xlink="http://www.w3.org/1999/xlink"
 xmlns:xodm="http://www.corel.com/coreldraw/odm/2003">
 <defs>
  <style type="text/css">
   <![CDATA[
    .fil0 {fill:black;fill-rule:nonzero}
   ]]>
  </style>
 </defs>
 <g id="Layer_x0020_1">
  <metadata id="CorelCorpID_0Corel-Layer"/>
  <path class="fil0" d="M53.1 518.89c-9.63,0 -18.5,-2.43 -26.6,-7.3 -8.1,-4.85 -14.55,-11.5 -19.32,-19.95 -4.8,-8.45 -7.17,-17.77 -7.17,-27.98 0,-10.5 2.45,-19.95 7.35,-28.35 4.9,-8.4 11.48,-14.95 19.7,-19.67 8.22,-4.7 17.1,-7.05 26.62,-7.05 6.1,0 12.05,0.95 17.85,2.85 5.77,1.9 10.8,4.5 15.05,7.77l-3.67 8.7c-3.43,-3.32 -7.73,-5.92 -12.95,-7.8 -5.22,-1.88 -10.6,-2.82 -16.12,-2.82 -7.63,0 -14.83,1.98 -21.65,5.9 -6.8,3.93 -12.27,9.43 -16.43,16.48 -4.15,7.07 -6.23,15.03 -6.23,23.93 0,8.77 2.03,16.72 6.08,23.85 4.05,7.1 9.45,12.65 16.23,16.7 6.75,4.03 14,6.03 21.7,6.03 5.83,0 11.48,-1.1 16.98,-3.33 5.47,-2.22 9.73,-5 12.7,-8.32l3.65 8.58c-4.2,3.67 -9.3,6.55 -15.33,8.65 -6.05,2.1 -12.17,3.15 -18.43,3.15z"/>
  <path id="_1" class="fil0" d="M133.5 518.89c-7.17,0 -13.63,-1.72 -19.32,-5.17 -5.73,-3.43 -10.17,-8.2 -13.4,-14.28 -3.23,-6.07 -4.85,-12.95 -4.85,-20.63 0,-7.65 1.62,-14.5 4.85,-20.5 3.22,-6 7.67,-10.67 13.4,-14.02 5.7,-3.35 12.15,-5.02 19.32,-5.02 7.23,0 13.7,1.67 19.42,5.02 5.7,3.35 10.15,8.03 13.35,14.02 3.2,6 4.8,12.85 4.8,20.5 0,7.68 -1.6,14.55 -4.82,20.63 -3.22,6.08 -7.7,10.85 -13.4,14.28 -5.73,3.45 -12.17,5.17 -19.35,5.17zm0 -8.42c5.48,0 10.35,-1.32 14.65,-4 4.3,-2.65 7.65,-6.4 10.05,-11.2 2.38,-4.8 3.57,-10.3 3.57,-16.45 0,-6.15 -1.2,-11.57 -3.57,-16.25 -2.4,-4.7 -5.75,-8.32 -10.05,-10.92 -4.3,-2.58 -9.17,-3.88 -14.65,-3.88 -5.37,0 -10.2,1.3 -14.5,3.88 -4.3,2.6 -7.65,6.25 -10.1,10.95 -2.45,4.72 -3.68,10.12 -3.68,16.22 0,6.15 1.22,11.65 3.68,16.45 2.45,4.8 5.8,8.55 10.07,11.2 4.27,2.68 9.1,4 14.52,4z"/>
  <path id="_2" class="fil0" d="M257.42 518.89c-3.75,-1.95 -6.45,-4.05 -8.08,-6.28 -1.65,-2.23 -2.58,-5.22 -2.82,-9.02l-0.45 0c-2.97,4.87 -6.82,8.65 -11.53,11.3 -4.72,2.68 -9.9,4 -15.57,4 -6.5,0 -12.35,-1.65 -17.6,-4.9 -5.25,-3.27 -9.37,-7.92 -12.37,-13.97 -3.02,-6.03 -4.53,-13.03 -4.53,-21.05 0,-8.05 1.5,-15.08 4.48,-21.1 2.97,-6 7.1,-10.6 12.35,-13.82 5.25,-3.23 11.15,-4.85 17.67,-4.85 5.42,0 10.37,1.15 14.88,3.45 4.5,2.3 8.25,5.63 11.27,9.98l0.38 0 0 -47.7 9.08 0 0 93.25c0,2.53 0.17,4.55 0.55,6.03 0.38,1.5 1,2.73 1.9,3.7 0.9,0.97 2.28,1.93 4.08,2.8l-3.68 8.2zm-37.35 -8.2c5.02,0 9.55,-1.38 13.53,-4.15 3.97,-2.75 7.07,-6.52 9.32,-11.35 2.25,-4.8 3.38,-10.22 3.38,-16.22 0,-6.55 -1.18,-12.2 -3.55,-17 -2.38,-4.77 -5.55,-8.4 -9.53,-10.87 -3.98,-2.45 -8.35,-3.7 -13.15,-3.7 -5.08,0 -9.63,1.32 -13.63,3.92 -4,2.63 -7.13,6.33 -9.38,11.1 -2.25,4.8 -3.35,10.3 -3.3,16.55 -0.05,6.1 1.07,11.57 3.35,16.4 2.28,4.85 5.4,8.6 9.4,11.3 4,2.68 8.52,4.03 13.55,4.03z"/>
  <path id="_3" class="fil0" d="M280.3 440.44l9.07 0 0 77.28 -9.07 0 0 -77.28zm4.45 -13.7c-2.23,0 -4.15,-0.78 -5.75,-2.38 -1.58,-1.57 -2.38,-3.5 -2.38,-5.75 0,-2.3 0.8,-4.23 2.38,-5.78 1.6,-1.57 3.52,-2.35 5.75,-2.35 2.3,0 4.23,0.78 5.8,2.35 1.55,1.55 2.35,3.48 2.35,5.78 0,2.25 -0.8,4.18 -2.35,5.75 -1.57,1.6 -3.5,2.38 -5.8,2.38z"/>
  <path id="_4" class="fil0" d="M312.07 440.44l9.1 0 0 11.12 0.2 0c2.45,-3.85 5.83,-6.85 10.12,-9.02 4.3,-2.18 9.15,-3.27 14.58,-3.27 5.85,0 10.8,1.27 14.85,3.77 4.05,2.53 7.1,5.93 9.1,10.25 2,4.33 3,9.25 3,14.78l0 49.65 -9.1 0 0 -47.68c0,-7.27 -1.73,-12.8 -5.2,-16.6 -3.45,-3.78 -8.32,-5.68 -14.58,-5.68 -4.32,0 -8.25,0.92 -11.75,2.77 -3.47,1.88 -6.23,4.48 -8.22,7.8 -2,3.35 -3,7.17 -3,11.47l0 47.9 -9.1 0 0 -77.28z"/>
  <path id="_5" class="fil0" d="M425.18 549.64c-5,0 -10,-0.73 -15.05,-2.23 -5.07,-1.5 -9.1,-3.3 -12.12,-5.45l3.5 -8.27c2.75,2.23 6.23,4.08 10.45,5.53 4.23,1.42 8.53,2.15 12.93,2.15 4.67,0 9.05,-0.9 13.1,-2.75 4.05,-1.83 7.33,-4.6 9.78,-8.3 2.48,-3.73 3.7,-8.27 3.7,-13.7l0 -12.82c-3.07,4.7 -6.92,8.3 -11.6,10.8 -4.65,2.53 -9.78,3.77 -15.35,3.77 -6.45,0 -12.25,-1.62 -17.45,-4.85 -5.2,-3.25 -9.33,-7.9 -12.35,-13.93 -3.02,-6.02 -4.55,-13.05 -4.55,-21.05 0,-8.03 1.53,-14.98 4.55,-20.88 3.02,-5.93 7.17,-10.45 12.4,-13.63 5.25,-3.18 11.17,-4.77 17.77,-4.77 5.48,0 10.47,1.17 15.03,3.47 4.53,2.33 8.32,5.68 11.35,10l0 -12.3 9.08 0 0 75.65c0,7.57 -1.7,13.9 -5.13,18.95 -3.42,5.05 -7.82,8.75 -13.17,11.1 -5.38,2.33 -11,3.5 -16.85,3.5zm0.43 -39.7c5.02,0 9.53,-1.35 13.48,-4.05 3.95,-2.73 7.05,-6.47 9.28,-11.33 2.22,-4.82 3.32,-10.32 3.32,-16.47 0,-6.1 -1.1,-11.45 -3.3,-16 -2.18,-4.57 -5.27,-8.1 -9.22,-10.58 -3.95,-2.5 -8.48,-3.75 -13.55,-3.75 -5.22,0 -9.8,1.28 -13.77,3.85 -3.95,2.55 -7,6.18 -9.15,10.85 -2.15,4.65 -3.22,10 -3.22,16.08 0,6.15 1.12,11.6 3.37,16.35 2.25,4.77 5.35,8.47 9.3,11.1 3.95,2.65 8.45,3.95 13.48,3.95z"/>
  <path id="_6" class="fil0" d="M553.93 409.76l7.85 0 44.45 107.95 -9.9 0 -12.65 -31.13 -51.65 0 -12.67 31.13 -9.88 0 44.45 -107.95zm26.15 68.1l-21.98 -55.08 -0.58 0 -21.9 55.08 44.45 0z"/>
  <path id="_7" class="fil0" d="M649.66 518.59c-6.87,0 -13.2,-1.75 -18.98,-5.22 -5.75,-3.5 -10.32,-8.3 -13.7,-14.4 -3.35,-6.1 -5.05,-12.88 -5.05,-20.3 0,-7.5 1.75,-14.27 5.2,-20.32 3.47,-6.03 8.1,-10.73 13.9,-14.1 5.78,-3.35 12.03,-5.05 18.7,-5.05 4.25,0 8.5,0.7 12.77,2.1 4.28,1.4 8,3.25 11.18,5.6l-3.65 7.9c-2.25,-2.15 -5.32,-3.88 -9.2,-5.2 -3.88,-1.3 -7.53,-1.98 -10.95,-1.98 -5.07,0 -9.83,1.35 -14.2,4 -4.4,2.65 -7.9,6.37 -10.52,11.13 -2.6,4.77 -3.93,10.15 -3.93,16.15 0,5.88 1.27,11.18 3.83,15.92 2.53,4.77 6,8.53 10.35,11.25 4.38,2.75 9.23,4.1 14.55,4.1 4.05,0 7.9,-0.73 11.58,-2.2 3.65,-1.45 6.57,-3.3 8.78,-5.55l3.67 8.05c-3.12,2.53 -6.8,4.53 -11.02,5.98 -4.23,1.42 -8.65,2.15 -13.3,2.15z"/>
  <path id="_8" class="fil0" d="M721.43 518.59c-6.87,0 -13.2,-1.75 -18.98,-5.22 -5.75,-3.5 -10.32,-8.3 -13.7,-14.4 -3.35,-6.1 -5.05,-12.88 -5.05,-20.3 0,-7.5 1.75,-14.27 5.2,-20.32 3.47,-6.03 8.1,-10.73 13.9,-14.1 5.78,-3.35 12.03,-5.05 18.7,-5.05 4.25,0 8.5,0.7 12.77,2.1 4.28,1.4 8,3.25 11.18,5.6l-3.65 7.9c-2.25,-2.15 -5.32,-3.88 -9.2,-5.2 -3.88,-1.3 -7.53,-1.98 -10.95,-1.98 -5.07,0 -9.83,1.35 -14.2,4 -4.4,2.65 -7.9,6.37 -10.52,11.13 -2.6,4.77 -3.93,10.15 -3.93,16.15 0,5.88 1.27,11.18 3.83,15.92 2.53,4.77 6,8.53 10.35,11.25 4.38,2.75 9.23,4.1 14.55,4.1 4.05,0 7.9,-0.73 11.58,-2.2 3.65,-1.45 6.57,-3.3 8.78,-5.55l3.67 8.05c-3.12,2.53 -6.8,4.53 -11.02,5.98 -4.23,1.42 -8.65,2.15 -13.3,2.15z"/>
  <path id="_9" class="fil0" d="M788.46 518.89c-5.53,0 -10.35,-1.2 -14.5,-3.6 -4.15,-2.38 -7.38,-5.83 -9.68,-10.32 -2.28,-4.5 -3.43,-9.78 -3.43,-15.9l0 -48.62 9.08 0 0 48.27c0,4.45 0.83,8.3 2.5,11.58 1.65,3.27 3.98,5.78 6.95,7.53 2.97,1.77 6.4,2.65 10.25,2.65 4.4,0 8.35,-1.02 11.87,-3.07 3.5,-2.05 6.25,-4.8 8.22,-8.2 1.98,-3.42 2.97,-7.1 2.97,-11.07l0 -47.68 9.08 0 0 57.42c0,2.65 0.2,4.72 0.55,6.28 0.38,1.52 1.02,2.8 1.95,3.8 0.92,1 2.3,1.93 4.1,2.75l-3.45 8.2c-6.2,-3.07 -9.8,-7.35 -10.82,-12.82l-0.15 0c-2.55,3.82 -6,6.9 -10.37,9.27 -4.38,2.38 -9.4,3.55 -15.13,3.55z"/>
  <path id="_10" class="fil0" d="M846.11 440.44l9.1 0 0 12.97 0.43 0c2.75,-4.3 6.23,-7.72 10.45,-10.3 4.23,-2.55 8.82,-3.85 13.8,-3.85 1.33,0 2.63,0.1 3.95,0.3 1.32,0.2 2.37,0.42 3.15,0.65l-3.72 8.72c-1.22,-0.5 -2.95,-0.72 -5.13,-0.72 -3.32,0 -6.77,1 -10.35,3.02 -3.55,2.02 -6.55,4.87 -8.95,8.55 -2.43,3.65 -3.63,7.78 -3.63,12.38l0 45.55 -9.1 0 0 -77.28z"/>
  <path id="_11" class="fil0" d="M916.29 518.89c-4.62,0 -8.85,-0.95 -12.63,-2.82 -3.8,-1.87 -6.77,-4.53 -8.97,-7.95 -2.2,-3.4 -3.3,-7.35 -3.3,-11.78 0,-4.95 1.42,-9.23 4.25,-12.83 2.82,-3.62 6.95,-6.4 12.38,-8.32 5.42,-1.93 11.95,-2.87 19.55,-2.87l13.27 0 0 -4.62c0,-3.68 -0.4,-6.93 -1.22,-9.83 -0.8,-2.87 -2.53,-5.3 -5.2,-7.28 -2.65,-1.97 -6.52,-2.97 -11.6,-2.97 -3.48,0 -7.38,0.73 -11.73,2.18 -4.35,1.42 -7.98,3.22 -10.9,5.37l-3.68 -8.05c3.48,-2.3 7.75,-4.2 12.85,-5.68 5.1,-1.5 9.85,-2.25 14.25,-2.25 9.53,0 16.23,2.58 20.1,7.73 3.9,5.17 5.83,12.1 5.83,20.85l0 29.8c0,6.85 1.83,11.05 5.5,12.6l1.1 0.53 -3.45 8.2 -1.98 -0.88c-2.48,-1.17 -4.53,-2.85 -6.13,-5 -1.57,-2.12 -2.55,-4.53 -2.87,-7.17l-0.37 0c-2.4,3.83 -5.8,6.95 -10.23,9.38 -4.4,2.45 -9.35,3.67 -14.82,3.67zm-15.98 -22.55c0,2.82 0.75,5.32 2.25,7.52 1.47,2.2 3.5,3.93 6.08,5.18 2.57,1.25 5.37,1.87 8.45,1.87 3.78,0 7.5,-0.92 11.18,-2.73 3.7,-1.8 6.72,-4.28 9.12,-7.42 2.4,-3.15 3.58,-6.65 3.58,-10.53l0 -10.4 -12.88 0c-5.9,0 -10.95,0.67 -15.1,2.02 -4.15,1.35 -7.3,3.25 -9.45,5.7 -2.15,2.48 -3.23,5.4 -3.23,8.78z"/>
  <path id="_12" class="fil0" d="M1005.93 518.59c-6.87,0 -13.2,-1.75 -18.98,-5.22 -5.75,-3.5 -10.32,-8.3 -13.7,-14.4 -3.35,-6.1 -5.05,-12.88 -5.05,-20.3 0,-7.5 1.75,-14.27 5.2,-20.32 3.47,-6.03 8.1,-10.73 13.9,-14.1 5.78,-3.35 12.03,-5.05 18.7,-5.05 4.25,0 8.5,0.7 12.77,2.1 4.28,1.4 8,3.25 11.18,5.6l-3.65 7.9c-2.25,-2.15 -5.32,-3.88 -9.2,-5.2 -3.88,-1.3 -7.53,-1.98 -10.95,-1.98 -5.07,0 -9.83,1.35 -14.2,4 -4.4,2.65 -7.9,6.37 -10.52,11.13 -2.6,4.77 -3.93,10.15 -3.93,16.15 0,5.88 1.27,11.18 3.83,15.92 2.53,4.77 6,8.53 10.35,11.25 4.38,2.75 9.23,4.1 14.55,4.1 4.05,0 7.9,-0.73 11.58,-2.2 3.65,-1.45 6.57,-3.3 8.78,-5.55l3.67 8.05c-3.12,2.53 -6.8,4.53 -11.02,5.98 -4.23,1.42 -8.65,2.15 -13.3,2.15z"/>
  <path id="_13" class="fil0" d="M1052.66 549.64c-2.3,0 -4.57,-0.25 -6.85,-0.75 -2.28,-0.53 -4,-1.07 -5.22,-1.65l3.5 -8.35c1.27,0.68 2.75,1.22 4.45,1.68 1.67,0.45 3.25,0.65 4.72,0.65 2.82,0 5.2,-0.7 7.13,-2.15 1.92,-1.45 3.42,-3.12 4.48,-5.02 1.05,-1.9 2.05,-4.15 3.02,-6.73l3.3 -9.07 -32.15 -77.8 9.9 0 19.17 48.62 7.18 18.48 0.6 0 6.72 -18.48 17.88 -48.62 9.68 0 -34.2 88.92c-1.48,3.85 -3.02,7.18 -4.7,10 -1.65,2.8 -4,5.22 -7.05,7.25 -3.07,2.03 -6.9,3.02 -11.55,3.02z"/>
  <path class="fil0" d="M187.3 328.53l8.29 20.47c1.95,5.36 6.34,7.8 12.19,5.85 44.84,-17.55 161.34,-74.58 161.34,-210.57 0,-75.55 -37.04,-136.97 -114.55,-136.97 -59.47,0 -109.18,50.21 -109.18,111.62 0,67.27 50.21,105.77 102.36,105.77 32.17,0 60.44,-15.11 64.83,-17.55 -16.09,59.47 -94.07,99.92 -116.5,107.23 -9.26,2.92 -11.21,8.29 -8.77,14.14zm67.75 -143.3c-36.07,0 -64.83,-29.73 -64.83,-66.78 0,-36.07 28.76,-67.27 64.34,-67.27 53.13,0 71.65,56.05 67.27,97 -2.44,8.77 -27.78,37.04 -66.78,37.04z"/>
  <path id="_1_0" class="fil0" d="M419.31 257.85c0,53.13 43.38,93.59 111.62,93.59 70.68,0 113.57,-40.46 113.57,-93.59 0,-41.92 -36.56,-71.16 -58.98,-81.4l0 -1.95c20.96,-10.72 50.21,-37.53 50.21,-75.06 0,-53.62 -44.36,-89.2 -104.31,-89.2 -58.49,0 -103.34,35.58 -103.34,89.2 0,38.02 29.25,64.83 50.21,75.55l0 1.46c-18.03,8.29 -58.98,38.99 -58.98,81.4zm112.6 -104.31c-38.02,-5.85 -54.59,-25.83 -54.59,-52.16 0,-29.73 23.88,-51.18 53.13,-51.18 32.17,0 56.05,21.45 56.05,51.18 0,25.83 -17.06,46.79 -54.59,52.16l0 0zm-61.9 105.29c0,-25.83 22.42,-52.64 61.9,-58.49 39.48,5.85 61.9,32.66 61.9,58.49 0,32.66 -27.78,53.13 -62.39,53.13 -32.17,0 -61.42,-20.96 -61.42,-53.13z"/>
  <path id="_2_1" class="fil0" d="M693.25 317.8c0,18.52 15.11,33.63 33.63,33.63 19.01,0 34.12,-15.11 34.12,-33.63 0,-19.01 -15.11,-34.12 -34.12,-34.12 -18.52,0 -33.63,15.11 -33.63,34.12z"/>
  <path id="_3_2" class="fil0" d="M813.16 310.98c12.19,14.62 41.92,40.46 95.05,40.46 66.78,0 115.52,-50.69 115.52,-111.62 0,-63.85 -40.46,-105.29 -112.11,-105.29l-49.23 0 0 -77.01 116.01 0c5.36,0 9.26,-4.39 9.26,-9.26l0 -23.88c0,-4.87 -3.9,-9.26 -9.26,-9.26l-150.62 0c-5.36,0 -9.26,4.39 -9.26,9.26l0 136.48c0,7.8 5.36,17.06 15.11,17.06l74.58 0c45.33,0 67.75,28.27 67.75,62.39 0,34.61 -26.32,68.73 -66.29,68.73 -37.04,0 -64.34,-27.3 -67.75,-31.68 -3.9,-4.39 -7.8,-3.41 -11.7,0 -6.34,5.36 -11.7,11.7 -18.03,17.06 -5.85,5.85 -5.36,9.26 0.97,16.57z"/>
  <path id="_4_3" class="fil0" d="M1120.73 131.61c36.07,0 65.8,-29.25 65.8,-65.8 0,-36.56 -29.73,-65.8 -65.8,-65.8 -36.56,0 -65.8,29.25 -65.8,65.8 0,36.56 29.25,65.8 65.8,65.8zm-22.91 201.8c-3.41,6.34 0.97,13.16 8.29,13.16l15.11 0c2.44,0 7.31,-2.92 8.29,-4.87l168.16 -323.17c3.41,-6.34 -0.97,-13.16 -8.29,-13.16l-16.09 0c-2.44,0 -6.34,1.95 -8.29,4.87l-167.19 323.17zm22.91 -236.4c-17.06,0 -30.71,-13.65 -30.71,-31.2 0,-16.09 13.65,-30.22 30.71,-30.22 16.57,0 30.22,14.14 30.22,30.22 0,17.55 -13.65,31.2 -30.22,31.2zm91.64 189.12c0,36.56 29.25,65.8 65.8,65.8 36.07,0 65.8,-29.25 65.8,-65.8 0,-36.56 -29.73,-65.8 -65.8,-65.8 -36.56,0 -65.8,29.25 -65.8,65.8zm34.61 0c0,-16.57 13.65,-30.22 31.2,-30.22 16.09,0 30.22,13.65 30.22,30.22 0,17.06 -14.14,30.71 -30.22,30.71 -17.55,0 -31.2,-13.65 -31.2,-30.71z"/>
 </g>
</svg>
