<?xml version="1.0" encoding="UTF-8"?>
<!DOCTYPE svg PUBLIC "-//W3C//DTD SVG 1.1//EN" "http://www.w3.org/Graphics/SVG/1.1/DTD/svg11.dtd">
<!-- Creator: CorelDRAW 2021 (64-Bit) -->
<svg xmlns="http://www.w3.org/2000/svg" xml:space="preserve" width="46.3476mm" height="17.6333mm" version="1.1" style="shape-rendering:geometricPrecision; text-rendering:geometricPrecision; image-rendering:optimizeQuality; fill-rule:evenodd; clip-rule:evenodd"
viewBox="0 0 14858.96 5653.2"
 xmlns:xlink="http://www.w3.org/1999/xlink"
 xmlns:xodm="http://www.corel.com/coreldraw/odm/2003">
 <defs>
  <style type="text/css">
   <![CDATA[
    .fil0 {fill:#00B1D5}
    .fil1 {fill:#FAFAFA;fill-rule:nonzero}
   ]]>
  </style>
 </defs>
 <g id="Layer_x0020_1">
  <metadata id="CorelCorpID_0Corel-Layer"/>
  <g id="_2271010977664">
   <path class="fil0" d="M7971.77 174.25l6628.14 4398.51c350.13,232.31 420.14,1080.45 -267.12,1080.45l-13707.08 0c-820.86,0 -712.69,-848.11 -362.53,-1080.45l6628.14 -4398.51c350.13,-232.34 730.32,-232.27 1080.45,0z"/>
   <path class="fil1" d="M5305 3412.64c0,16.06 12.82,30.49 30.49,30.49l104.26 0c16.03,0 30.46,-14.43 30.46,-30.49l0 -376.93 232.59 0c195.66,0 357.69,-162 357.69,-360.9 0,-194.09 -162.03,-354.49 -359.29,-354.49l-365.71 0c-17.66,0 -30.49,14.46 -30.49,30.49l0 1061.82zm165.2 -534.12l0 -397.8 221.34 0c110.7,0 203.71,83.42 203.71,192.49 0,115.48 -93.01,205.31 -203.71,205.31l-221.34 0z"/>
   <path id="_1" class="fil1" d="M6113.42 3244.23c0,133.14 86.63,214.93 206.91,214.93 99.45,0 162,-48.12 197.3,-81.78l16.03 43.31c6.41,16.03 12.82,22.44 27.28,22.44l44.92 0c16.03,0 30.46,-14.43 30.46,-30.49l0 -341.63c0,-160.4 -19.24,-285.52 -224.55,-285.52 -118.69,0 -210.12,32.09 -221.34,36.9 -14.46,4.81 -25.68,16.03 -20.87,36.9l12.82 59.34c4.84,17.63 16.06,30.46 35.3,25.65 33.69,-9.62 105.86,-28.85 179.66,-28.85 81.78,0 101.05,40.11 99.45,141.16 0,0 -59.37,-19.27 -126.73,-19.27 -163.6,0 -256.64,89.83 -256.64,206.91l0 0zm139.56 -1.6c0,-65.75 52.93,-105.86 129.91,-105.86 57.74,0 102.66,19.24 112.27,25.68l0 102.66c-19.24,32.06 -80.18,80.18 -144.33,80.18 -59.34,0 -97.85,-44.92 -97.85,-102.66l0 0z"/>
   <path id="_2" class="fil1" d="M6880.13 3268.31c0,113.88 36.9,190.85 163.6,190.85 76.98,0 171.62,-38.47 187.68,-48.12 16.03,-8.01 22.44,-20.84 14.43,-38.47l-28.89 -70.6c-6.41,-14.43 -16.03,-24.04 -36.87,-14.43 -19.27,9.62 -64.18,28.89 -97.85,28.89 -30.49,0 -51.33,-9.65 -51.33,-64.18l0 -317.58 163.6 0c17.63,0 30.46,-14.43 30.46,-30.46l0 -72.2c0,-17.63 -12.82,-30.46 -30.46,-30.46l-163.6 0 0 -179.66c0,-16.03 -12.86,-30.46 -28.89,-30.46l-91.43 1.6c-16.03,0 -30.46,14.43 -30.46,30.46l0 178.06 -67.36 0c-17.66,0 -30.49,12.82 -30.49,30.46l0 72.2c0,16.03 12.82,30.46 30.49,30.46l67.36 0 0 333.65z"/>
   <path id="_3" class="fil1" d="M7467.18 2540.1c52.93,0 94.64,-41.71 94.64,-93.04 0,-52.93 -41.71,-94.64 -94.64,-94.64 -51.33,0 -91.4,41.71 -91.4,94.64 0,51.33 40.07,93.04 91.4,93.04zm-73.77 872.54c0,16.06 14.43,30.49 30.49,30.49l91.4 0c16.06,0 30.49,-14.43 30.49,-30.49l0 -580.64c0,-16.03 -14.43,-30.46 -30.49,-30.46l-91.4 0c-16.06,0 -30.49,14.43 -30.49,30.46l0 580.64z"/>
   <path id="_4" class="fil1" d="M7707.79 3122.34c0,184.44 128.34,336.82 322.39,336.82 107.46,0 190.88,-40.07 237.4,-80.18 19.24,-16.06 14.43,-28.89 3.21,-41.71l-44.92 -60.95c-12.82,-16.06 -24.04,-9.62 -43.31,1.6 -32.06,20.84 -84.99,46.52 -142.73,46.52 -104.26,0 -179.66,-85.02 -184.47,-171.65l436.27 0c14.46,0 27.28,-11.22 28.89,-27.25 1.6,-11.22 3.21,-32.09 3.21,-43.31 0,-171.62 -128.3,-296.75 -295.14,-296.75 -192.46,0 -320.79,155.59 -320.79,336.85zm155.59 -70.6c9.62,-80.18 77.01,-142.73 163.6,-142.73 78.61,0 142.76,65.75 147.57,142.73l-311.17 0z"/>
   <path id="_5" class="fil1" d="M8477.71 3412.64c0,16.06 14.43,30.49 30.49,30.49l83.39 0c27.28,0 36.9,-9.62 36.9,-30.49l0 -391.35c8.01,-22.47 76.98,-96.24 178.03,-96.24 83.42,0 133.14,56.14 133.14,158.79l0 328.81c0,16.06 12.82,30.49 30.49,30.49l91.4 0c16.06,0 30.49,-14.43 30.49,-30.49l0 -322.39c0,-166.81 -72.2,-304.76 -267.86,-304.76 -128.34,0 -213.33,77.01 -224.58,89.83l-19.24 -54.53c-3.21,-11.22 -12.82,-19.24 -25.65,-19.24l-46.52 0c-16.06,0 -30.49,14.43 -30.49,30.46l0 580.64z"/>
   <path id="_6" class="fil1" d="M9329.44 3268.31c0,113.88 36.9,190.85 163.6,190.85 76.98,0 171.62,-38.47 187.68,-48.12 16.03,-8.01 22.44,-20.84 14.43,-38.47l-28.89 -70.6c-6.41,-14.43 -16.03,-24.04 -36.87,-14.43 -19.27,9.62 -64.18,28.89 -97.85,28.89 -30.49,0 -51.33,-9.65 -51.33,-64.18l0 -317.58 163.6 0c17.63,0 30.46,-14.43 30.46,-30.46l0 -72.2c0,-17.63 -12.82,-30.46 -30.46,-30.46l-163.6 0 0 -179.66c0,-16.03 -12.86,-30.46 -28.89,-30.46l-91.43 1.6c-16.03,0 -30.46,14.43 -30.46,30.46l0 178.06 -67.36 0c-17.66,0 -30.49,12.82 -30.49,30.46l0 72.2c0,16.03 12.82,30.46 30.49,30.46l67.36 0 0 333.65z"/>
   <path id="_7" class="fil1" d="M3824.54 4773.29c25.65,24.04 149.17,126.7 344.84,126.7 208.52,0 357.69,-136.32 357.69,-303.16 0,-195.66 -158.79,-283.89 -344.84,-359.26 -133.14,-54.57 -203.71,-110.7 -203.71,-202.11 0,-59.37 46.52,-144.37 181.23,-144.37 93.04,0 205.31,73.77 216.53,80.18 22.47,14.46 43.31,4.81 56.17,-16.03 12.82,-19.24 27.25,-41.71 40.07,-60.95 16.06,-24.08 3.21,-46.52 -9.62,-54.53 -16.03,-11.22 -136.32,-94.64 -296.75,-94.64 -255.04,0 -351.25,171.62 -351.25,296.75 0,186.04 128.3,271.07 291.9,340.03 158.79,65.79 242.21,126.73 242.21,222.98 0,81.78 -70.56,149.14 -181.27,149.14 -123.49,0 -246.99,-102.62 -256.64,-110.67 -17.63,-14.43 -40.07,-8.01 -54.53,12.86 -14.43,20.84 -27.25,44.88 -41.68,65.75 -16.06,27.25 -4.81,38.5 9.62,51.33z"/>
   <path id="_8" class="fil1" d="M4642.55 4685.06c0,133.14 86.63,214.93 206.91,214.93 99.45,0 162,-48.12 197.3,-81.78l16.03 43.31c6.41,16.03 12.82,22.44 27.28,22.44l44.92 0c16.03,0 30.46,-14.43 30.46,-30.49l0 -341.63c0,-160.4 -19.24,-285.52 -224.55,-285.52 -118.69,0 -210.12,32.09 -221.34,36.9 -14.46,4.81 -25.68,16.03 -20.87,36.9l12.82 59.34c4.84,17.63 16.06,30.46 35.3,25.65 33.69,-9.62 105.86,-28.85 179.66,-28.85 81.78,0 101.05,40.11 99.45,141.16 0,0 -59.37,-19.27 -126.73,-19.27 -163.6,0 -256.64,89.83 -256.64,206.91l0 0zm139.56 -1.6c0,-65.75 52.93,-105.86 129.91,-105.86 57.74,0 102.66,19.24 112.27,25.68l0 102.66c-19.24,32.06 -80.18,80.18 -144.33,80.18 -59.34,0 -97.85,-44.92 -97.85,-102.66l0 0z"/>
   <path id="_9" class="fil1" d="M5409.26 4709.14c0,113.88 36.9,190.85 163.6,190.85 76.98,0 171.62,-38.47 187.68,-48.12 16.03,-8.01 22.44,-20.84 14.43,-38.47l-28.89 -70.6c-6.41,-14.43 -16.03,-24.04 -36.87,-14.43 -19.27,9.62 -64.18,28.89 -97.85,28.89 -30.49,0 -51.33,-9.65 -51.33,-64.18l0 -317.58 163.6 0c17.63,0 30.46,-14.43 30.46,-30.46l0 -72.2c0,-17.63 -12.82,-30.46 -30.46,-30.46l-163.6 0 0 -179.66c0,-16.03 -12.86,-30.46 -28.89,-30.46l-91.43 1.6c-16.03,0 -30.46,14.43 -30.46,30.46l0 178.06 -67.36 0c-17.66,0 -30.49,12.82 -30.49,30.46l0 72.2c0,16.03 12.82,30.46 30.49,30.46l67.36 0 0 333.65z"/>
   <path id="_10" class="fil1" d="M5996.31 3980.93c52.93,0 94.64,-41.71 94.64,-93.04 0,-52.93 -41.71,-94.64 -94.64,-94.64 -51.33,0 -91.4,41.71 -91.4,94.64 0,51.33 40.07,93.04 91.4,93.04zm-73.77 872.54c0,16.06 14.43,30.49 30.49,30.49l91.4 0c16.06,0 30.49,-14.43 30.49,-30.49l0 -580.64c0,-16.03 -14.43,-30.46 -30.49,-30.46l-91.4 0c-16.06,0 -30.49,14.43 -30.49,30.46l0 580.64z"/>
   <path id="_11" class="fil1" d="M6254.55 4834.24c33.69,27.28 104.26,65.75 211.76,65.75 142.73,0 237.37,-88.2 237.37,-187.65 0,-120.32 -96.24,-170.05 -213.33,-221.37 -62.55,-27.25 -102.66,-44.88 -102.66,-86.59 0,-24.08 17.63,-48.12 72.17,-48.12 60.98,0 131.54,33.66 131.54,33.66 12.82,6.44 33.69,1.6 41.71,-12.82l28.85 -54.53c9.65,-16.03 1.6,-36.9 -12.82,-46.52 -32.09,-20.84 -99.45,-49.72 -189.28,-49.72 -153.98,0 -219.74,96.24 -219.74,176.46 0,105.86 83.42,166.81 182.87,210.12 88.2,40.11 123.49,60.95 123.49,104.26 0,35.27 -30.46,54.53 -78.58,54.53 -78.61,0 -149.17,-41.71 -149.17,-41.71 -16.06,-9.62 -33.69,-4.81 -40.11,8.01l-33.69 62.55c-6.41,12.86 0,27.28 9.62,33.69z"/>
   <path id="_12" class="fil1" d="M6907.38 4853.47c0,16.06 14.43,30.49 30.49,30.49l94.61 0c16.06,0 30.49,-14.43 30.49,-30.49l0 -477.98 173.22 0c17.66,0 30.49,-14.43 30.49,-30.46l0 -72.2c0,-17.63 -12.82,-30.46 -30.49,-30.46l-173.22 0 0 -198.9c0,-107.46 49.72,-158.79 120.29,-158.79 38.5,0 85.02,24.04 105.86,38.47 16.06,11.25 32.09,9.65 40.11,-4.81l40.11 -72.17c6.41,-11.22 4.81,-27.28 -6.41,-36.9 -28.89,-25.65 -96.24,-64.15 -182.87,-64.15 -153.98,0 -272.67,99.45 -272.67,298.35l0 198.9 -75.37 0c-17.66,0 -30.49,12.82 -30.49,30.46l0 72.2c0,16.03 12.82,30.46 30.49,30.46l75.37 0 0 477.98z"/>
   <path id="_13" class="fil1" d="M7348.46 4685.06c0,133.14 86.63,214.93 206.91,214.93 99.45,0 162,-48.12 197.3,-81.78l16.03 43.31c6.41,16.03 12.82,22.44 27.28,22.44l44.92 0c16.03,0 30.46,-14.43 30.46,-30.49l0 -341.63c0,-160.4 -19.24,-285.52 -224.55,-285.52 -118.69,0 -210.12,32.09 -221.34,36.9 -14.46,4.81 -25.68,16.03 -20.87,36.9l12.82 59.34c4.84,17.63 16.06,30.46 35.3,25.65 33.69,-9.62 105.86,-28.85 179.66,-28.85 81.78,0 101.05,40.11 99.45,141.16 0,0 -59.37,-19.27 -126.73,-19.27 -163.6,0 -256.64,89.83 -256.64,206.91l0 0zm139.56 -1.6c0,-65.75 52.93,-105.86 129.91,-105.86 57.74,0 102.66,19.24 112.27,25.68l0 102.66c-19.24,32.06 -80.18,80.18 -144.33,80.18 -59.34,0 -97.85,-44.92 -97.85,-102.66l0 0z"/>
   <path id="_14" class="fil1" d="M8025.34 4564.77c0,192.49 155.59,335.22 335.25,335.22 110.67,0 197.26,-52.93 248.59,-134.72 11.25,-16.06 4.81,-32.09 -11.22,-44.92l-43.31 -35.3c-14.43,-11.22 -28.85,-11.22 -43.31,3.21 -33.66,32.09 -67.36,73.8 -149.14,73.8 -104.26,0 -184.47,-88.23 -184.47,-198.9 0,-109.07 81.82,-197.3 186.08,-197.3 52.93,0 99.45,28.89 128.3,60.95 12.82,11.22 24.08,24.08 43.31,6.41l52.93 -48.12c14.43,-11.22 17.63,-30.46 6.41,-44.92 -59.34,-73.77 -134.75,-113.88 -232.56,-113.88 -178.06,0 -336.85,149.17 -336.85,338.46z"/>
   <path id="_15" class="fil1" d="M8811.29 4709.14c0,113.88 36.9,190.85 163.6,190.85 76.98,0 171.62,-38.47 187.68,-48.12 16.03,-8.01 22.44,-20.84 14.43,-38.47l-28.89 -70.6c-6.41,-14.43 -16.03,-24.04 -36.87,-14.43 -19.27,9.62 -64.18,28.89 -97.85,28.89 -30.49,0 -51.33,-9.65 -51.33,-64.18l0 -317.58 163.6 0c17.63,0 30.46,-14.43 30.46,-30.46l0 -72.2c0,-17.63 -12.82,-30.46 -30.46,-30.46l-163.6 0 0 -179.66c0,-16.03 -12.86,-30.46 -28.89,-30.46l-91.43 1.6c-16.03,0 -30.46,14.43 -30.46,30.46l0 178.06 -67.36 0c-17.66,0 -30.49,12.82 -30.49,30.46l0 72.2c0,16.03 12.82,30.46 30.49,30.46l67.36 0 0 333.65z"/>
   <path id="_16" class="fil1" d="M9398.34 3980.93c52.93,0 94.64,-41.71 94.64,-93.04 0,-52.93 -41.71,-94.64 -94.64,-94.64 -51.33,0 -91.4,41.71 -91.4,94.64 0,51.33 40.07,93.04 91.4,93.04zm-73.77 872.54c0,16.06 14.43,30.49 30.49,30.49l91.4 0c16.06,0 30.49,-14.43 30.49,-30.49l0 -580.64c0,-16.03 -14.43,-30.46 -30.49,-30.46l-91.4 0c-16.06,0 -30.49,14.43 -30.49,30.46l0 580.64z"/>
   <path id="_17" class="fil1" d="M9637.34 4561.57c0,184.44 144.37,338.42 324,338.42 179.66,0 324.03,-153.98 324.03,-338.42 0,-181.27 -144.37,-335.25 -324.03,-335.25 -179.63,0 -324,153.98 -324,335.25zm142.76 0c0,-107.46 80.18,-195.69 181.23,-195.69 101.05,0 181.27,88.23 181.27,195.69 0,110.67 -80.21,200.5 -181.27,200.5 -101.05,0 -181.23,-89.83 -181.23,-200.5z"/>
   <path id="_18" class="fil1" d="M10445.76 4853.47c0,16.06 14.43,30.49 30.49,30.49l83.39 0c27.28,0 36.9,-9.62 36.9,-30.49l0 -391.35c8.01,-22.47 76.98,-96.24 178.03,-96.24 83.42,0 133.14,56.14 133.14,158.79l0 328.81c0,16.06 12.82,30.49 30.49,30.49l91.4 0c16.06,0 30.49,-14.43 30.49,-30.49l0 -322.39c0,-166.81 -72.2,-304.76 -267.86,-304.76 -128.34,0 -213.33,77.01 -224.58,89.83l-19.24 -54.53c-3.21,-11.22 -12.82,-19.24 -25.65,-19.24l-46.52 0c-16.06,0 -30.49,14.43 -30.49,30.46l0 580.64z"/>
  </g>
 </g>
</svg>
