<?xml version="1.0" encoding="UTF-8"?>
<!DOCTYPE svg PUBLIC "-//W3C//DTD SVG 1.1//EN" "http://www.w3.org/Graphics/SVG/1.1/DTD/svg11.dtd">
<!-- Creator: CorelDRAW 2021 (64-Bit) -->
<svg xmlns="http://www.w3.org/2000/svg" xml:space="preserve" width="32.6812mm" height="13.5196mm" version="1.1" style="shape-rendering:geometricPrecision; text-rendering:geometricPrecision; image-rendering:optimizeQuality; fill-rule:evenodd; clip-rule:evenodd"
viewBox="0 0 1124.27 465.09"
 xmlns:xlink="http://www.w3.org/1999/xlink"
 xmlns:xodm="http://www.corel.com/coreldraw/odm/2003">
 <defs>
  <style type="text/css">
   <![CDATA[
    .fil0 {fill:black;fill-rule:nonzero}
   ]]>
  </style>
 </defs>
 <g id="Layer_x0020_1">
  <metadata id="CorelCorpID_0Corel-Layer"/>
  <polygon class="fil0" points="-0,367.28 6.7,367.28 52.46,432.98 62.63,448.21 63.15,448.21 62.94,423.21 62.94,367.28 71.55,367.28 71.55,464.04 64.92,464.04 19.23,398.18 8.92,383.23 8.4,383.23 8.54,407.39 8.54,464.04 -0,464.04 "/>
  <path id="_1" class="fil0" d="M121.14 465.09c-6.36,0 -11.99,-1.48 -16.92,-4.44 -4.93,-2.96 -8.74,-7.12 -11.45,-12.53 -2.71,-5.42 -4.08,-11.68 -4.08,-18.76 0,-7.08 1.35,-13.33 4.01,-18.71 2.67,-5.38 6.38,-9.55 11.14,-12.5 4.75,-2.96 10.13,-4.43 16.18,-4.43 5.94,0 11.2,1.41 15.78,4.23 4.57,2.82 8.11,6.65 10.57,11.49 2.47,4.84 3.72,10.15 3.72,15.91 0,1.19 -0.07,2.47 -0.18,3.86 -0.11,1.37 -0.23,2.42 -0.36,3.11l-52.84 0c0.34,5.06 1.59,9.5 3.74,13.29 2.13,3.78 4.97,6.7 8.53,8.76 3.54,2.06 7.55,3.09 12.08,3.09 4.15,0 7.96,-0.76 11.41,-2.3 3.47,-1.52 6.36,-3.39 8.67,-5.58l3.29 7.62c-2.93,2.38 -6.43,4.28 -10.44,5.71 -4.04,1.46 -8.31,2.17 -12.86,2.17zm20.86 -39.73c0,-4.46 -0.89,-8.51 -2.69,-12.17 -1.8,-3.65 -4.35,-6.54 -7.69,-8.67 -3.32,-2.13 -7.15,-3.18 -11.47,-3.18 -4.12,0 -7.86,0.96 -11.27,2.89 -3.39,1.93 -6.14,4.7 -8.27,8.34 -2.13,3.63 -3.41,7.91 -3.83,12.79l45.22 0z"/>
  <path id="_2" class="fil0" d="M188.43 464.95c-6.05,0 -10.62,-1.77 -13.76,-5.31 -3.14,-3.56 -4.71,-8.45 -4.71,-14.72l0 -42.73 -11.29 0 0 -7.42 11.29 0 0 -23.03 8.16 0 0 23.03 17.86 0 0 7.42 -17.86 0 0 42.42c0,4.01 0.89,7.17 2.69,9.41 1.79,2.26 4.33,3.39 7.62,3.39 1.88,0 3.81,-0.45 5.76,-1.37l3.16 7.15c-2.8,1.19 -5.78,1.77 -8.92,1.77z"/>
  <path id="_3" class="fil0" d="M288.76 465.09c-8.63,0 -16.58,-2.17 -23.84,-6.54 -7.26,-4.35 -13.04,-10.31 -17.32,-17.88 -4.3,-7.58 -6.43,-15.93 -6.43,-25.07 0,-9.41 2.19,-17.88 6.59,-25.41 4.39,-7.53 10.29,-13.4 17.66,-17.63 7.37,-4.21 15.33,-6.32 23.86,-6.32 5.47,0 10.8,0.85 16,2.56 5.17,1.7 9.68,4.03 13.49,6.97l-3.29 7.8c-3.07,-2.98 -6.92,-5.31 -11.61,-6.99 -4.68,-1.68 -9.5,-2.53 -14.45,-2.53 -6.84,0 -13.29,1.77 -19.41,5.29 -6.1,3.52 -11,8.45 -14.72,14.77 -3.72,6.34 -5.58,13.47 -5.58,21.45 0,7.86 1.82,14.99 5.45,21.38 3.63,6.36 8.47,11.34 14.54,14.97 6.05,3.61 12.55,5.4 19.45,5.4 5.22,0 10.29,-0.99 15.22,-2.98 4.91,-1.99 8.72,-4.48 11.38,-7.46l3.27 7.69c-3.77,3.29 -8.34,5.87 -13.74,7.75 -5.43,1.89 -10.91,2.82 -16.52,2.82z"/>
  <path id="_4" class="fil0" d="M360.82 465.09c-6.43,0 -12.21,-1.54 -17.32,-4.64 -5.13,-3.07 -9.12,-7.35 -12.01,-12.8 -2.89,-5.44 -4.35,-11.61 -4.35,-18.49 0,-6.86 1.46,-13 4.35,-18.37 2.89,-5.38 6.88,-9.57 12.01,-12.57 5.11,-3 10.89,-4.5 17.32,-4.5 6.48,0 12.28,1.5 17.41,4.5 5.11,3 9.1,7.19 11.97,12.57 2.87,5.38 4.3,11.52 4.3,18.37 0,6.88 -1.43,13.04 -4.32,18.49 -2.89,5.45 -6.9,9.73 -12.01,12.8 -5.13,3.09 -10.91,4.64 -17.35,4.64zm0 -7.55c4.91,0 9.28,-1.19 13.13,-3.58 3.86,-2.38 6.86,-5.74 9.01,-10.04 2.13,-4.3 3.2,-9.23 3.2,-14.75 0,-5.51 -1.07,-10.37 -3.2,-14.57 -2.15,-4.21 -5.15,-7.46 -9.01,-9.79 -3.85,-2.31 -8.22,-3.47 -13.13,-3.47 -4.82,0 -9.14,1.17 -13,3.47 -3.85,2.33 -6.86,5.6 -9.05,9.81 -2.2,4.23 -3.3,9.07 -3.3,14.54 0,5.51 1.1,10.44 3.3,14.75 2.19,4.3 5.2,7.66 9.03,10.04 3.83,2.4 8.16,3.58 13.02,3.58z"/>
  <path id="_5" class="fil0" d="M422.87 464.89c-4.1,0 -7.1,-1.28 -8.99,-3.81 -1.88,-2.53 -2.82,-6.36 -2.82,-11.49l0 -86.65 8.14 0 0 86.85c0,1.5 0.09,2.73 0.27,3.74 0.18,1.01 0.63,1.88 1.37,2.62 0.76,0.76 1.91,1.12 3.5,1.12 1.14,0 2.37,-0.25 3.74,-0.72l0 7.55c-1.32,0.51 -3.05,0.78 -5.2,0.78z"/>
  <path id="_6" class="fil0" d="M454.37 464.89c-4.1,0 -7.1,-1.28 -8.99,-3.81 -1.88,-2.53 -2.82,-6.36 -2.82,-11.49l0 -86.65 8.14 0 0 86.85c0,1.5 0.09,2.73 0.27,3.74 0.18,1.01 0.63,1.88 1.37,2.62 0.76,0.76 1.91,1.12 3.5,1.12 1.14,0 2.37,-0.25 3.74,-0.72l0 7.55c-1.32,0.51 -3.05,0.78 -5.2,0.78z"/>
  <path id="_7" class="fil0" d="M501.72 465.09c-6.36,0 -11.99,-1.48 -16.92,-4.44 -4.93,-2.96 -8.74,-7.12 -11.45,-12.53 -2.71,-5.42 -4.08,-11.68 -4.08,-18.76 0,-7.08 1.35,-13.33 4.01,-18.71 2.67,-5.38 6.38,-9.55 11.14,-12.5 4.75,-2.96 10.13,-4.43 16.18,-4.43 5.94,0 11.2,1.41 15.78,4.23 4.57,2.82 8.11,6.65 10.57,11.49 2.47,4.84 3.72,10.15 3.72,15.91 0,1.19 -0.07,2.47 -0.18,3.86 -0.11,1.37 -0.23,2.42 -0.36,3.11l-52.84 0c0.34,5.06 1.59,9.5 3.74,13.29 2.13,3.78 4.97,6.7 8.53,8.76 3.54,2.06 7.55,3.09 12.08,3.09 4.15,0 7.96,-0.76 11.41,-2.3 3.47,-1.52 6.36,-3.39 8.67,-5.58l3.29 7.62c-2.93,2.38 -6.43,4.28 -10.44,5.71 -4.04,1.46 -8.31,2.17 -12.86,2.17zm20.86 -39.73c0,-4.46 -0.89,-8.51 -2.69,-12.17 -1.8,-3.65 -4.35,-6.54 -7.69,-8.67 -3.32,-2.13 -7.15,-3.18 -11.47,-3.18 -4.12,0 -7.86,0.96 -11.27,2.89 -3.39,1.93 -6.14,4.7 -8.27,8.34 -2.13,3.63 -3.41,7.91 -3.83,12.79l45.22 0z"/>
  <path id="_8" class="fil0" d="M576.54 464.82c-6.16,0 -11.83,-1.57 -17.01,-4.68 -5.15,-3.14 -9.25,-7.44 -12.28,-12.91 -3,-5.47 -4.53,-11.54 -4.53,-18.2 0,-6.72 1.57,-12.79 4.66,-18.22 3.11,-5.4 7.26,-9.62 12.46,-12.64 5.18,-3 10.78,-4.53 16.76,-4.53 3.81,0 7.62,0.63 11.45,1.88 3.83,1.26 7.17,2.91 10.02,5.02l-3.27 7.08c-2.02,-1.93 -4.77,-3.47 -8.25,-4.66 -3.47,-1.17 -6.75,-1.77 -9.81,-1.77 -4.55,0 -8.81,1.21 -12.73,3.58 -3.94,2.38 -7.08,5.71 -9.43,9.97 -2.33,4.28 -3.52,9.1 -3.52,14.48 0,5.27 1.14,10.02 3.43,14.27 2.26,4.28 5.38,7.64 9.27,10.09 3.92,2.46 8.27,3.67 13.04,3.67 3.63,0 7.08,-0.65 10.38,-1.97 3.27,-1.3 5.89,-2.96 7.87,-4.97l3.29 7.21c-2.8,2.26 -6.1,4.06 -9.88,5.36 -3.79,1.28 -7.75,1.93 -11.92,1.93z"/>
  <path id="_9" class="fil0" d="M636.68 464.95c-6.05,0 -10.62,-1.77 -13.76,-5.31 -3.14,-3.56 -4.71,-8.45 -4.71,-14.72l0 -42.73 -11.29 0 0 -7.42 11.29 0 0 -23.03 8.16 0 0 23.03 17.86 0 0 7.42 -17.86 0 0 42.42c0,4.01 0.89,7.17 2.69,9.41 1.79,2.26 4.33,3.39 7.62,3.39 1.88,0 3.81,-0.45 5.76,-1.37l3.16 7.15c-2.8,1.19 -5.78,1.77 -8.92,1.77z"/>
  <path id="_10" class="fil0" d="M661.11 394.77l8.13 0 0 69.26 -8.13 0 0 -69.26zm3.99 -12.28c-2,0 -3.72,-0.69 -5.15,-2.13 -1.41,-1.41 -2.13,-3.14 -2.13,-5.15 0,-2.06 0.72,-3.79 2.13,-5.18 1.43,-1.41 3.16,-2.11 5.15,-2.11 2.06,0 3.79,0.69 5.2,2.11 1.39,1.39 2.11,3.12 2.11,5.18 0,2.02 -0.72,3.74 -2.11,5.15 -1.41,1.43 -3.14,2.13 -5.2,2.13z"/>
  <path id="_11" class="fil0" d="M719.46 465.09c-6.43,0 -12.21,-1.54 -17.32,-4.64 -5.13,-3.07 -9.12,-7.35 -12.01,-12.8 -2.89,-5.44 -4.35,-11.61 -4.35,-18.49 0,-6.86 1.46,-13 4.35,-18.37 2.89,-5.38 6.88,-9.57 12.01,-12.57 5.11,-3 10.89,-4.5 17.32,-4.5 6.48,0 12.28,1.5 17.41,4.5 5.11,3 9.1,7.19 11.97,12.57 2.87,5.38 4.3,11.52 4.3,18.37 0,6.88 -1.43,13.04 -4.32,18.49 -2.89,5.45 -6.9,9.73 -12.01,12.8 -5.13,3.09 -10.91,4.64 -17.35,4.64zm0 -7.55c4.91,0 9.28,-1.19 13.13,-3.58 3.86,-2.38 6.86,-5.74 9.01,-10.04 2.13,-4.3 3.2,-9.23 3.2,-14.75 0,-5.51 -1.07,-10.37 -3.2,-14.57 -2.15,-4.21 -5.15,-7.46 -9.01,-9.79 -3.85,-2.31 -8.22,-3.47 -13.13,-3.47 -4.82,0 -9.14,1.17 -13,3.47 -3.85,2.33 -6.86,5.6 -9.05,9.81 -2.2,4.23 -3.3,9.07 -3.3,14.54 0,5.51 1.1,10.44 3.3,14.75 2.19,4.3 5.2,7.66 9.03,10.04 3.83,2.4 8.16,3.58 13.02,3.58z"/>
  <path id="_12" class="fil0" d="M769.43 394.77l8.16 0 0 9.97 0.18 0c2.2,-3.45 5.22,-6.14 9.07,-8.09 3.86,-1.95 8.2,-2.93 13.07,-2.93 5.24,0 9.68,1.14 13.31,3.38 3.63,2.26 6.36,5.31 8.16,9.19 1.79,3.88 2.69,8.29 2.69,13.24l0 44.5 -8.16 0 0 -42.73c0,-6.52 -1.55,-11.47 -4.66,-14.88 -3.09,-3.39 -7.46,-5.09 -13.07,-5.09 -3.87,0 -7.39,0.83 -10.53,2.49 -3.11,1.68 -5.58,4.01 -7.37,6.99 -1.79,3 -2.69,6.43 -2.69,10.28l0 42.94 -8.16 0 0 -69.26z"/>
  <path id="_13" class="fil0" d="M877.89 367.28l26.64 0c5.6,0 10.64,1.08 15.1,3.27 4.46,2.2 7.98,5.31 10.53,9.39 2.58,4.08 3.85,8.85 3.85,14.32 0,4.23 -0.83,8.23 -2.46,11.94 -1.64,3.72 -3.99,6.9 -7.06,9.55 -3.07,2.64 -6.7,4.59 -10.89,5.8l27.5 42.49 -9.84 0 -26.66 -41.16 -0.72 0 -17.46 0 0 41.16 -8.54 0 0 -96.76zm26.06 48.04c4.23,0 8,-0.85 11.25,-2.56 3.27,-1.7 5.8,-4.1 7.6,-7.19 1.79,-3.09 2.69,-6.65 2.69,-10.73 0,-4.03 -0.92,-7.53 -2.76,-10.51 -1.84,-2.98 -4.44,-5.26 -7.77,-6.86 -3.36,-1.59 -7.24,-2.4 -11.65,-2.4l-16.87 0 0 40.25 17.52 0z"/>
  <path id="_14" class="fil0" d="M971.89 465.09c-4.15,0 -7.93,-0.85 -11.32,-2.53 -3.41,-1.68 -6.07,-4.06 -8.04,-7.12 -1.97,-3.05 -2.96,-6.59 -2.96,-10.55 0,-4.44 1.28,-8.27 3.81,-11.5 2.53,-3.25 6.23,-5.73 11.09,-7.46 4.86,-1.73 10.71,-2.58 17.52,-2.58l11.9 0 0 -4.15c0,-3.3 -0.36,-6.21 -1.1,-8.81 -0.72,-2.58 -2.26,-4.75 -4.66,-6.52 -2.37,-1.77 -5.85,-2.67 -10.4,-2.67 -3.12,0 -6.61,0.65 -10.51,1.95 -3.9,1.28 -7.15,2.89 -9.77,4.82l-3.3 -7.21c3.12,-2.06 6.95,-3.76 11.52,-5.09 4.57,-1.35 8.83,-2.02 12.77,-2.02 8.54,0 14.54,2.31 18.02,6.92 3.5,4.64 5.22,10.85 5.22,18.69l0 26.71c0,6.14 1.64,9.9 4.93,11.29l0.99 0.47 -3.09 7.35 -1.77 -0.78c-2.22,-1.05 -4.06,-2.55 -5.49,-4.48 -1.41,-1.9 -2.28,-4.06 -2.58,-6.43l-0.33 0c-2.15,3.43 -5.2,6.23 -9.17,8.4 -3.94,2.19 -8.38,3.29 -13.29,3.29zm-14.32 -20.21c0,2.53 0.67,4.77 2.02,6.74 1.32,1.97 3.14,3.52 5.45,4.64 2.3,1.12 4.82,1.68 7.57,1.68 3.39,0 6.72,-0.83 10.02,-2.44 3.32,-1.61 6.03,-3.83 8.18,-6.65 2.15,-2.82 3.21,-5.96 3.21,-9.44l0 -9.32 -11.54 0c-5.29,0 -9.81,0.6 -13.53,1.81 -3.72,1.21 -6.54,2.91 -8.47,5.11 -1.93,2.22 -2.89,4.84 -2.89,7.87z"/>
  <path id="_15" class="fil0" d="M1046.08 464.95c-6.05,0 -10.62,-1.77 -13.76,-5.31 -3.14,-3.56 -4.71,-8.45 -4.71,-14.72l0 -42.73 -11.29 0 0 -7.42 11.29 0 0 -23.03 8.16 0 0 23.03 17.86 0 0 7.42 -17.86 0 0 42.42c0,4.01 0.89,7.17 2.69,9.41 1.79,2.26 4.33,3.39 7.62,3.39 1.88,0 3.81,-0.45 5.76,-1.37l3.16 7.15c-2.8,1.19 -5.78,1.77 -8.92,1.77z"/>
  <path id="_16" class="fil0" d="M1095.32 465.09c-6.36,0 -11.99,-1.48 -16.92,-4.44 -4.93,-2.96 -8.74,-7.12 -11.45,-12.53 -2.71,-5.42 -4.08,-11.68 -4.08,-18.76 0,-7.08 1.35,-13.33 4.01,-18.71 2.67,-5.38 6.38,-9.55 11.14,-12.5 4.75,-2.96 10.13,-4.43 16.18,-4.43 5.94,0 11.2,1.41 15.78,4.23 4.57,2.82 8.11,6.65 10.57,11.49 2.47,4.84 3.72,10.15 3.72,15.91 0,1.19 -0.07,2.47 -0.18,3.86 -0.11,1.37 -0.23,2.42 -0.36,3.11l-52.84 0c0.34,5.06 1.59,9.5 3.74,13.29 2.13,3.78 4.97,6.7 8.53,8.76 3.54,2.06 7.55,3.09 12.08,3.09 4.15,0 7.96,-0.76 11.41,-2.3 3.47,-1.52 6.36,-3.39 8.67,-5.58l3.29 7.62c-2.93,2.38 -6.43,4.28 -10.44,5.71 -4.04,1.46 -8.31,2.17 -12.86,2.17zm20.86 -39.73c0,-4.46 -0.89,-8.51 -2.69,-12.17 -1.8,-3.65 -4.35,-6.54 -7.69,-8.67 -3.32,-2.13 -7.15,-3.18 -11.47,-3.18 -4.12,0 -7.86,0.96 -11.27,2.89 -3.39,1.93 -6.14,4.7 -8.27,8.34 -2.13,3.63 -3.41,7.91 -3.83,12.79l45.22 0z"/>
  <path class="fil0" d="M232.61 294.47l7.43 18.35c1.75,4.81 5.68,6.99 10.92,5.24 40.19,-15.73 144.61,-66.84 144.61,-188.74 0,-67.72 -33.2,-122.77 -102.67,-122.77 -53.3,0 -97.86,45 -97.86,100.05 0,60.29 45,94.81 91.75,94.81 28.83,0 54.17,-13.54 58.11,-15.73 -14.42,53.3 -84.32,89.56 -104.42,96.12 -8.3,2.62 -10.05,7.43 -7.86,12.67zm60.73 -128.45c-32.33,0 -58.11,-26.65 -58.11,-59.85 0,-32.33 25.78,-60.29 57.67,-60.29 47.62,0 64.22,50.24 60.29,86.94 -2.18,7.86 -24.9,33.2 -59.85,33.2z"/>
  <path id="_1_0" class="fil0" d="M440.57 231.12c0,47.62 38.88,83.88 100.05,83.88 63.35,0 101.8,-36.26 101.8,-83.88 0,-37.57 -32.77,-63.79 -52.86,-72.96l0 -1.75c18.79,-9.61 45,-33.64 45,-67.28 0,-48.06 -39.76,-79.95 -93.5,-79.95 -52.43,0 -92.62,31.89 -92.62,79.95 0,34.08 26.21,58.11 45,67.72l0 1.31c-16.17,7.43 -52.86,34.95 -52.86,72.96zm100.92 -93.5c-34.08,-5.24 -48.93,-23.16 -48.93,-46.75 0,-26.65 21.41,-45.87 47.62,-45.87 28.83,0 50.24,19.22 50.24,45.87 0,23.16 -15.29,41.94 -48.93,46.75l0 0zm-55.49 94.37c0,-23.16 20.1,-47.18 55.49,-52.43 35.39,5.24 55.49,29.27 55.49,52.43 0,29.27 -24.9,47.62 -55.92,47.62 -28.83,0 -55.05,-18.79 -55.05,-47.62z"/>
  <path id="_2_1" class="fil0" d="M737.66 117.96c32.33,0 58.98,-26.21 58.98,-58.98 0,-32.77 -26.65,-58.98 -58.98,-58.98 -32.77,0 -58.98,26.21 -58.98,58.98 0,32.77 26.21,58.98 58.98,58.98zm-20.53 180.87c-3.06,5.68 0.87,11.8 7.43,11.8l13.54 0c2.18,0 6.55,-2.62 7.43,-4.37l150.73 -289.66c3.06,-5.68 -0.87,-11.8 -7.43,-11.8l-14.42 0c-2.18,0 -5.68,1.75 -7.43,4.37l-149.85 289.66zm20.53 -211.89c-15.29,0 -27.52,-12.23 -27.52,-27.96 0,-14.42 12.23,-27.09 27.52,-27.09 14.85,0 27.09,12.67 27.09,27.09 0,15.73 -12.23,27.96 -27.09,27.96zm82.14 169.51c0,32.77 26.21,58.98 58.98,58.98 32.33,0 58.98,-26.21 58.98,-58.98 0,-32.77 -26.65,-58.98 -58.98,-58.98 -32.77,0 -58.98,26.21 -58.98,58.98zm31.02 0c0,-14.85 12.23,-27.09 27.96,-27.09 14.42,0 27.09,12.23 27.09,27.09 0,15.29 -12.67,27.52 -27.09,27.52 -15.73,0 -27.96,-12.23 -27.96,-27.52z"/>
 </g>
</svg>
