<?xml version="1.0" encoding="UTF-8"?>
<!DOCTYPE svg PUBLIC "-//W3C//DTD SVG 1.1//EN" "http://www.w3.org/Graphics/SVG/1.1/DTD/svg11.dtd">
<!-- Creator: CorelDRAW 2021 (64-Bit) -->
<svg xmlns="http://www.w3.org/2000/svg" xml:space="preserve" width="45.9682mm" height="17.489mm" version="1.1" style="shape-rendering:geometricPrecision; text-rendering:geometricPrecision; image-rendering:optimizeQuality; fill-rule:evenodd; clip-rule:evenodd"
viewBox="0 0 14099.2 5364.16"
 xmlns:xlink="http://www.w3.org/1999/xlink"
 xmlns:xodm="http://www.corel.com/coreldraw/odm/2003">
 <defs>
  <style type="text/css">
   <![CDATA[
    .fil0 {fill:#00B1D5}
    .fil1 {fill:#FAFAFA;fill-rule:nonzero}
   ]]>
  </style>
 </defs>
 <g id="Layer_x0020_1">
  <metadata id="CorelCorpID_0Corel-Layer"/>
  <g id="_2271010973008">
   <path class="fil0" d="M7564.18 165.35l6289.25 4173.58c332.2,220.47 398.64,1025.23 -253.5,1025.23l-13006.25 0c-778.84,0 -676.22,-804.73 -343.98,-1025.23l6289.25 -4173.58c332.2,-220.47 693,-220.41 1025.23,0z"/>
   <path class="fil1" d="M5384.74 3238.16c0,15.21 13.71,28.92 28.92,28.92l100.45 0c16.75,0 28.92,-13.71 28.92,-28.92l0 -439.83 557.03 0 0 439.83c0,15.21 12.18,28.92 28.92,28.92l100.45 0c15.21,0 28.92,-13.71 28.92,-28.92l0 -1007.53c0,-15.21 -13.71,-28.92 -28.92,-28.92l-100.45 0c-16.75,0 -28.92,13.71 -28.92,28.92l0 424.62 -557.03 0 0 -424.62c0,-15.21 -12.18,-28.92 -28.92,-28.92l-100.45 0c-15.21,0 -28.92,13.71 -28.92,28.92l0 1007.53z"/>
   <path id="_1" class="fil1" d="M6553.61 2410.21c50.21,0 89.81,-39.57 89.81,-88.27 0,-50.21 -39.6,-89.78 -89.81,-89.78 -48.71,0 -86.74,39.57 -86.74,89.78 0,48.71 38.03,88.27 86.74,88.27zm-70.02 827.95c0,15.21 13.71,28.92 28.92,28.92l86.77 0c15.21,0 28.89,-13.71 28.89,-28.92l0 -550.95c0,-15.21 -13.68,-28.89 -28.89,-28.89l-86.77 0c-15.21,0 -28.92,13.68 -28.92,28.89l0 550.95z"/>
   <path id="_2" class="fil1" d="M6765.18 3230.55c0,101.98 80.64,143.05 112.6,152.19l0 4.57c-15.21,9.14 -89.78,51.74 -89.78,143.05 0,98.95 86.74,208.54 301.35,208.54 202.4,0 324.17,-118.73 324.17,-252.67 0,-132.41 -106.52,-203.94 -238.93,-203.94l-207 0c-45.67,0 -73.06,-27.39 -73.06,-62.39 0,-48.71 51.74,-74.59 62.42,-74.59 12.18,0 54.78,24.35 132.41,24.35 158.27,0 258.72,-118.7 258.72,-248.07 0,-114.16 -65.42,-162.84 -65.42,-162.84l83.7 -22.85c10.64,-1.5 16.75,-15.21 16.75,-25.86l0 -38.06c0,-16.75 -12.18,-28.92 -28.92,-28.92l-266.35 0c-155.23,0 -261.78,124.8 -261.78,266.35 0,91.31 47.2,147.62 47.2,147.62 0,0 -108.06,56.31 -108.06,173.51zm325.67 -178.08c-77.6,0 -133.91,-57.82 -133.91,-140.02 0,-82.17 56.31,-140.02 133.91,-140.02 76.1,0 127.87,57.85 127.87,140.02 0,82.2 -51.77,140.02 -127.87,140.02l0 0zm-161.3 453.54c0,-68.46 74.56,-92.81 83.7,-95.88 44.14,-3.04 89.78,-3.04 133.91,-3.04 98.95,0 114.16,62.42 114.16,86.77 0,73.03 -80.67,120.23 -173.51,120.23 -92.84,0 -158.27,-45.67 -158.27,-108.09z"/>
   <path id="_3" class="fil1" d="M7526.15 3238.16c0,15.21 13.71,28.92 28.92,28.92l86.77 0c19.78,0 30.43,-12.18 30.43,-28.92l0 -366.77c7.61,-25.89 71.53,-95.91 164.37,-95.91 79.13,0 129.37,54.81 129.37,153.73l0 308.96c0,15.21 12.18,28.92 28.92,28.92l85.21 0c15.24,0 28.92,-13.71 28.92,-28.92l0 -305.92c0,-165.87 -82.17,-289.17 -254.15,-289.17 -97.41,0 -167.44,54.81 -182.65,65.45l0 -477.89c0,-15.21 -13.71,-28.92 -28.92,-28.92l-88.27 0c-15.21,0 -28.92,13.71 -28.92,28.92l0 1007.53z"/>
   <path id="_4" class="fil1" d="M8255.15 2962.7c0,175.01 121.77,319.6 305.92,319.6 101.98,0 181.12,-38.03 225.25,-76.1 18.28,-15.21 13.71,-27.39 3.04,-39.57l-42.6 -57.85c-12.18,-15.21 -22.82,-9.11 -41.1,1.53 -30.43,19.78 -80.67,44.14 -135.45,44.14 -98.92,0 -170.47,-80.67 -175.04,-162.84l413.98 0c13.71,0 25.89,-10.67 27.42,-25.89 1.5,-10.64 3.04,-30.43 3.04,-41.1 0,-162.84 -121.77,-281.57 -280.03,-281.57 -182.65,0 -304.42,147.65 -304.42,319.63zm147.65 -66.99c9.11,-76.1 73.03,-135.45 155.23,-135.45 74.56,0 135.45,62.42 140.02,135.45l-295.25 0z"/>
   <path id="_5" class="fil1" d="M8985.69 3238.16c0,15.21 13.71,28.92 28.92,28.92l73.06 0c24.35,0 41.1,-3.04 41.1,-28.92l0 -386.59c6.07,-10.64 48.71,-74.56 136.98,-74.56 19.78,0 42.6,6.1 51.74,10.64 13.68,6.1 28.92,3.07 36.53,-13.68l36.53 -74.59c16.72,-41.07 -53.28,-56.31 -111.12,-56.31 -111.09,0 -167.41,73.06 -178.05,88.27l-16.75 -51.74c-3.07,-12.18 -15.21,-21.29 -25.89,-21.29l-44.14 0c-15.21,0 -28.92,13.68 -28.92,28.89l0 550.95z"/>
   <path id="_6" class="fil1" d="M4037.83 4103.07c0,304.39 245.04,546.38 549.42,546.38 135.45,0 266.32,-47.17 369.84,-147.62 10.64,-10.64 13.68,-30.43 1.5,-41.1l-69.99 -68.49c-9.14,-7.61 -22.85,-9.11 -36.53,1.53 -73.06,56.31 -150.69,100.45 -261.78,100.45 -217.65,0 -383.55,-181.12 -383.55,-394.19 0,-213.08 164.4,-395.69 382.02,-395.69 94.38,0 191.79,39.57 263.32,101.95 13.68,13.71 27.39,13.71 38.03,0l66.99 -68.49c12.18,-12.18 12.18,-30.43 -1.53,-42.6 -103.49,-89.81 -214.61,-141.55 -368.31,-141.55 -304.39,0 -549.42,245.04 -549.42,549.42z"/>
   <path id="_7" class="fil1" d="M5059.07 4328.32c0,175.04 136.98,321.13 307.42,321.13 170.47,0 307.45,-146.09 307.45,-321.13 0,-171.98 -136.98,-318.1 -307.45,-318.1 -170.44,0 -307.42,146.12 -307.42,318.1zm135.45 0c0,-101.95 76.1,-185.69 171.98,-185.69 95.88,0 171.98,83.73 171.98,185.69 0,105.02 -76.1,190.26 -171.98,190.26 -95.88,0 -171.98,-85.24 -171.98,-190.26z"/>
   <path id="_8" class="fil1" d="M5826.11 4605.32c0,15.21 13.71,28.92 28.92,28.92l86.77 0c15.21,0 28.89,-13.71 28.89,-28.92l0 -1007.53c0,-15.21 -13.68,-28.92 -28.89,-28.92l-86.77 0c-15.21,0 -28.92,13.71 -28.92,28.92l0 1007.53z"/>
   <path id="_9" class="fil1" d="M6168.56 4605.32c0,15.21 13.71,28.92 28.92,28.92l86.77 0c15.21,0 28.89,-13.71 28.89,-28.92l0 -1007.53c0,-15.21 -13.68,-28.92 -28.89,-28.92l-86.77 0c-15.21,0 -28.92,13.71 -28.92,28.92l0 1007.53z"/>
   <path id="_10" class="fil1" d="M6466.87 4329.85c0,175.01 121.77,319.6 305.92,319.6 101.98,0 181.12,-38.03 225.25,-76.1 18.28,-15.21 13.71,-27.39 3.04,-39.57l-42.6 -57.85c-12.18,-15.21 -22.82,-9.11 -41.1,1.53 -30.43,19.78 -80.67,44.14 -135.45,44.14 -98.92,0 -170.47,-80.67 -175.04,-162.84l413.98 0c13.71,0 25.89,-10.67 27.42,-25.89 1.5,-10.64 3.04,-30.43 3.04,-41.1 0,-162.84 -121.77,-281.57 -280.03,-281.57 -182.65,0 -304.42,147.65 -304.42,319.63zm147.65 -66.99c9.11,-76.1 73.03,-135.45 155.23,-135.45 74.56,0 135.45,62.42 140.02,135.45l-295.25 0z"/>
   <path id="_11" class="fil1" d="M7151.77 4331.36c0,182.65 147.62,318.1 318.1,318.1 104.99,0 187.19,-50.21 235.9,-127.84 10.64,-15.21 4.57,-30.43 -10.67,-42.6l-41.07 -33.49c-13.71,-10.64 -27.42,-10.64 -41.1,3.04 -31.96,30.46 -63.92,70.02 -141.55,70.02 -98.92,0 -175.01,-83.7 -175.01,-188.72 0,-103.49 77.6,-187.22 176.55,-187.22 50.21,0 94.35,27.42 121.74,57.85 12.18,10.64 22.85,22.82 41.1,6.07l50.24 -45.64c13.68,-10.64 16.75,-28.92 6.07,-42.63 -56.31,-69.99 -127.84,-108.06 -220.68,-108.06 -168.94,0 -319.6,141.55 -319.6,321.13z"/>
   <path id="_12" class="fil1" d="M7897.55 4468.34c0,108.06 35,181.12 155.23,181.12 73.06,0 162.84,-36.53 178.08,-45.64 15.21,-7.64 21.29,-19.78 13.68,-36.53l-27.39 -66.99c-6.1,-13.68 -15.21,-22.82 -35,-13.68 -18.28,9.11 -60.88,27.39 -92.84,27.39 -28.92,0 -48.71,-9.14 -48.71,-60.88l0 -301.35 155.23 0c16.75,0 28.92,-13.68 28.92,-28.92l0 -68.49c0,-16.72 -12.18,-28.89 -28.92,-28.89l-155.23 0 0 -170.47c0,-15.21 -12.18,-28.92 -27.39,-28.92l-86.77 1.53c-15.21,0 -28.89,13.68 -28.89,28.92l0 168.94 -63.95 0c-16.72,0 -28.89,12.18 -28.89,28.89l0 68.49c0,15.24 12.18,28.92 28.89,28.92l63.95 0 0 316.56z"/>
   <path id="_13" class="fil1" d="M8454.58 3777.37c50.21,0 89.81,-39.57 89.81,-88.27 0,-50.21 -39.6,-89.78 -89.81,-89.78 -48.71,0 -86.74,39.57 -86.74,89.78 0,48.71 38.03,88.27 86.74,88.27zm-70.02 827.95c0,15.21 13.71,28.92 28.92,28.92l86.77 0c15.21,0 28.89,-13.71 28.89,-28.92l0 -550.95c0,-15.21 -13.68,-28.89 -28.89,-28.89l-86.77 0c-15.21,0 -28.92,13.68 -28.92,28.89l0 550.95z"/>
   <path id="_14" class="fil1" d="M8681.36 4328.32c0,175.04 136.98,321.13 307.42,321.13 170.47,0 307.45,-146.09 307.45,-321.13 0,-171.98 -136.98,-318.1 -307.45,-318.1 -170.44,0 -307.42,146.12 -307.42,318.1zm135.45 0c0,-101.95 76.1,-185.69 171.98,-185.69 95.88,0 171.98,83.73 171.98,185.69 0,105.02 -76.1,190.26 -171.98,190.26 -95.88,0 -171.98,-85.24 -171.98,-190.26z"/>
   <path id="_15" class="fil1" d="M9448.4 4605.32c0,15.21 13.71,28.92 28.92,28.92l79.13 0c25.89,0 35.03,-9.14 35.03,-28.92l0 -371.34c7.61,-21.32 73.06,-91.34 168.94,-91.34 79.13,0 126.31,53.28 126.31,150.69l0 311.99c0,15.21 12.18,28.92 28.92,28.92l86.74 0c15.24,0 28.92,-13.71 28.92,-28.92l0 -305.92c0,-158.27 -68.49,-289.17 -254.15,-289.17 -121.77,0 -202.43,73.06 -213.08,85.24l-18.28 -51.74c-3.04,-10.64 -12.18,-18.25 -24.35,-18.25l-44.14 0c-15.21,0 -28.92,13.68 -28.92,28.89l0 550.95z"/>
   <path id="_16" class="fil1" d="M10194.15 4587.07c31.96,25.86 98.95,62.39 200.9,62.39 135.45,0 225.25,-83.7 225.25,-178.05 0,-114.16 -91.31,-161.33 -202.43,-210.04 -59.35,-25.89 -97.38,-42.63 -97.38,-82.2 0,-22.82 16.75,-45.64 68.49,-45.64 57.82,0 124.8,31.96 124.8,31.96 12.18,6.07 31.96,1.5 39.57,-12.18l27.39 -51.74c9.14,-15.24 1.53,-35.03 -12.18,-44.14 -30.43,-19.78 -94.38,-47.2 -179.58,-47.2 -146.12,0 -208.51,91.34 -208.51,167.44 0,100.45 79.13,158.27 173.48,199.37 83.73,38.06 117.2,57.85 117.2,98.92 0,33.49 -28.92,51.77 -74.56,51.77 -74.59,0 -141.55,-39.6 -141.55,-39.6 -15.21,-9.11 -31.96,-4.54 -38.03,7.61l-31.99 59.38c-6.07,12.18 0,25.86 9.14,31.96z"/>
  </g>
 </g>
</svg>
