<?xml version="1.0" encoding="UTF-8"?>
<!DOCTYPE svg PUBLIC "-//W3C//DTD SVG 1.1//EN" "http://www.w3.org/Graphics/SVG/1.1/DTD/svg11.dtd">
<!-- Creator: CorelDRAW 2021 (64-Bit) -->
<svg xmlns="http://www.w3.org/2000/svg" xml:space="preserve" width="13.3782mm" height="16.9003mm" version="1.1" style="shape-rendering:geometricPrecision; text-rendering:geometricPrecision; image-rendering:optimizeQuality; fill-rule:evenodd; clip-rule:evenodd"
viewBox="0 0 1300.36 1642.71"
 xmlns:xlink="http://www.w3.org/1999/xlink"
 xmlns:xodm="http://www.corel.com/coreldraw/odm/2003">
 <defs>
  <style type="text/css">
   <![CDATA[
    .fil0 {fill:#00B4D7}
    .fil1 {fill:white;fill-rule:nonzero}
   ]]>
  </style>
 </defs>
 <g id="Layer_x0020_1">
  <metadata id="CorelCorpID_0Corel-Layer"/>
  <g id="_2271213520064">
   <rect class="fil0" x="45.63" y="47.53" width="1199.97" height="1549.1"/>
   <path class="fil1" d="M1075.1 1404.99l-134.95 0 0 -135.88 134.95 0 0 135.88zm62.94 -199.21l-261.49 0 0 262.51 261.49 0 0 -262.51zm-62.94 -157.48l-134.95 0 0 -135.83 134.95 0 0 135.83zm62.94 -199.23l-261.49 0 0 262.53 261.49 0 0 -262.53zm-419.88 555.92l-134.96 0 0 -135.88 134.96 0 0 135.88zm62.94 -199.21l-261.5 0 0 262.51 261.5 0 0 -262.51zm-62.94 -157.48l-134.96 0 0 -135.83 134.96 0 0 135.83zm62.94 -199.23l-261.5 0 0 262.53 261.5 0 0 -262.53zm-419.85 555.92l-134.96 0 0 -135.88 134.96 0 0 135.88zm63 -199.21l-261.51 0 0 262.51 261.51 0 0 -262.51zm-63 -157.48l-134.96 0 0 -135.83 134.96 0 0 135.83zm63 -199.23l-261.51 0 0 262.53 261.51 0 0 -262.53zm738.2 -231.01l-1023.85 0 0 64.55 1023.85 0 0 -64.55zm-957.13 -412.1l888.98 0 0 272.1 -888.98 0 0 -272.1zm-66.77 339.72l1023.89 0 0 -406.99 -1023.89 0 0 406.99zm1094.19 982.87c0,36.04 -10.83,46.64 -47.32,46.64l-1069.7 0c-37.95,0 -48.23,-10.09 -48.23,-47.93l0 -1403.37c0,-5.04 0,-10.03 0.11,-15.08 0.55,-29.42 11.99,-41.07 41.92,-41.13 191.85,-0.15 383.67,-0.1 575.47,-0.15l500.64 0c36.53,0 47.11,10.68 47.11,46.87l0 708.16 0 705.98zm67.52 -1.1c0.16,-235.35 0.06,-470.7 0.06,-706.04l-0.16 0c0,-237.57 0.1,-475.13 -0.04,-712.6 0,-65.31 -43.75,-108.82 -108.62,-108.82 -359.46,0.12 -718.94,0.12 -1078.46,0.17 -70.86,0 -112.94,42.02 -112.94,112.84 -0.05,473.62 -0.05,947.23 -0.11,1420.8 0,64.91 43.45,108.76 108.66,108.76 358.76,0.1 717.54,0.19 1076.3,0.1 74.03,0 115.2,-41.21 115.3,-115.2z"/>
  </g>
 </g>
</svg>
