<?xml version="1.0" encoding="UTF-8"?>
<!DOCTYPE svg PUBLIC "-//W3C//DTD SVG 1.1//EN" "http://www.w3.org/Graphics/SVG/1.1/DTD/svg11.dtd">
<!-- Creator: CorelDRAW 2021 (64-Bit) -->
<svg xmlns="http://www.w3.org/2000/svg" xml:space="preserve" width="27.4252mm" height="27.4271mm" version="1.1" style="shape-rendering:geometricPrecision; text-rendering:geometricPrecision; image-rendering:optimizeQuality; fill-rule:evenodd; clip-rule:evenodd"
viewBox="0 0 664.9 664.95"
 xmlns:xlink="http://www.w3.org/1999/xlink"
 xmlns:xodm="http://www.corel.com/coreldraw/odm/2003">
 <defs>
  <style type="text/css">
   <![CDATA[
    .fil0 {fill:white}
   ]]>
  </style>
 </defs>
 <g id="Layer_x0020_1">
  <metadata id="CorelCorpID_0Corel-Layer"/>
  <g id="_2271160856480">
   <path class="fil0" d="M332.45 70.6c144.63,0 261.87,117.24 261.87,261.87 0,144.63 -117.24,261.87 -261.87,261.87 -144.63,0 -261.87,-117.24 -261.87,-261.87 0,-144.63 117.24,-261.87 261.87,-261.87zm20.3 412.74c18.49,-2.26 33.78,-10.28 45.9,-24.03 12.05,-13.7 18.11,-30.78 18.11,-51.09 0,-17.26 -4.33,-31.14 -12.81,-41.65 -8.58,-10.45 -25.63,-19.84 -51.21,-28.11l0 144.88zm-28.07 -328.97c-18.54,2.76 -33.12,10.16 -43.78,22.17 -10.62,12.01 -15.99,26.2 -15.99,42.64 0,16.17 4.5,29.8 13.64,40.73 9.11,10.91 24.47,19.66 46.13,26.17l0 -131.71zm0 416.78l0 -47.56c-23.83,-2.99 -43.15,-8.3 -58.07,-16 -14.9,-7.65 -27.81,-20.12 -38.65,-37.2 -10.84,-17.12 -17.13,-37.98 -18.85,-62.6l47.83 -9.03c3.73,25.52 10.24,44.33 19.62,56.33 13.38,16.94 29.43,26.36 48.12,28.25l0 -151.47c-19.58,-3.71 -39.56,-11.3 -60.02,-22.77 -15.18,-8.52 -26.83,-20.21 -35.02,-35.23 -8.25,-15.03 -12.26,-31.95 -12.26,-51.01 0,-33.85 12,-61.28 35.93,-82.23 16.06,-14.18 39.88,-22.77 71.38,-25.91l0 -22.76 28.07 0 0 22.76c27.64,2.61 49.69,10.77 65.84,24.29 20.85,17.23 33.29,40.99 37.53,71.12l-49.24 7.41c-2.79,-18.67 -8.61,-33.07 -17.56,-42.97 -8.87,-9.94 -21.04,-16.53 -36.57,-19.66l0 137.24c23.94,6 39.82,10.7 47.56,14.04 14.83,6.53 26.9,14.45 36.22,23.76 9.42,9.39 16.63,20.52 21.56,33.3 5.06,12.92 7.62,26.84 7.62,41.8 0,33.04 -10.59,60.51 -31.53,82.56 -20.9,22.09 -48.11,33.82 -81.43,35.47l0 48.09 -28.07 0z"/>
   <g>
    <path class="fil0" d="M469.38 77.33l25.32 -7.12c1.86,-0.52 3.05,-2.6 2.57,-4.47l-6.64 -25.85c-43.44,-23.42 -91.64,-36.93 -140.87,-39.54l17.46 18.81c1.31,1.41 1.32,3.72 0,5.15l-17.76 19.11c41.9,2.51 82.89,14.08 119.91,33.9z"/>
    <g>
     <path class="fil0" d="M349.7 0.36l17.37 18.71c1.32,1.43 1.32,3.74 0,5.15l-17.81 19.21c38.63,2.21 75.22,12 108.35,27.87 4.22,-14.06 11.21,-26.91 20.34,-37.95 -39.08,-19.03 -82.44,-30.65 -128.24,-32.99z"/>
     <path class="fil0" d="M77.4 195.43l-7.09 -25.18c-0.52,-1.85 -2.6,-3.05 -4.47,-2.57l-25.96 6.68c-22.92,42.27 -36.9,90.07 -39.5,140.89l18.88 -17.52c1.41,-1.31 3.72,-1.31 5.15,0l19.07 17.71c2.5,-43.23 14.48,-83.91 33.92,-120z"/>
     <path class="fil0" d="M587.65 469.42l7.02 24.96c0.51,1.86 2.59,3.05 4.46,2.57l26.2 -6.73c22.83,-42.29 36.76,-90.07 39.3,-140.87l-18.91 17.56c-1.41,1.3 -3.73,1.3 -5.15,0l-19.03 -17.68c-2.47,43.31 -14.45,84.05 -33.88,120.2z"/>
     <path class="fil0" d="M195.29 587.5l-24.85 6.99c-1.87,0.53 -3.06,2.61 -2.58,4.46l6.75 26.3c42.31,22.87 90.16,36.83 141,39.37l-17.7 -19.07c-1.32,-1.41 -1.32,-3.74 0,-5.15l17.54 -18.9c-43.3,-2.5 -84.05,-14.52 -120.16,-34z"/>
     <path class="fil0" d="M179.98 86.35l6.49 -25.49c0.48,-1.87 -0.72,-3.95 -2.58,-4.46l-25.71 -7.18c-42,25.91 -77.8,60.9 -104.68,102.23l25.02 -5.72c1.87,-0.43 3.88,0.72 4.46,2.57l7.67 24.94c23.12,-35.03 53.64,-64.74 89.32,-86.9z"/>
     <path class="fil0" d="M181.34 36.18l24.49 7.55c1.85,0.57 3,2.59 2.57,4.46l-5.82 25.49c36.51,-18.37 77.44,-29.23 120.77,-30.58l18.41 -18.88c1.34,-1.37 1.34,-3.78 0,-5.15l-18.64 -19.02c-50.96,1.43 -99.05,14.28 -141.79,36.13z"/>
     <path class="fil0" d="M484.9 578.68l-6.39 25.06c-0.48,1.87 0.72,3.94 2.57,4.46l26.11 7.3c41.98,-25.96 77.75,-61.02 104.56,-102.4l-25.3 5.78c-1.87,0.43 -3.88,-0.72 -4.44,-2.57l-7.62 -24.69c-23.14,35.11 -53.72,64.88 -89.49,87.07z"/>
     <path class="fil0" d="M484.09 628.55l-24.94 -7.69c-1.85,-0.55 -3,-2.57 -2.57,-4.46l5.73 -25.08c-36.59,18.38 -77.59,29.24 -121.02,30.55l-18.06 18.52c-1.35,1.37 -1.35,3.78 0,5.15l18.95 19.34c51.01,-1.46 99.15,-14.4 141.91,-36.34z"/>
     <path class="fil0" d="M625.36 191.68l-4.31 13.97c-0.56,1.84 -2.57,3.01 -4.46,2.57l-15.45 -3.53c-2.47,0.94 -4.97,1.8 -7.53,2.57 16.97,35.31 26.98,74.59 28.27,116.08l18.69 18.23c1.39,1.34 3.78,1.34 5.15,0l19.19 -18.79c-1.39,-48.62 -13.23,-94.64 -33.35,-135.87 -2,1.66 -4.06,3.26 -6.19,4.77z"/>
     <path class="fil0" d="M86.2 484.73l-25.14 -6.38c-1.87,-0.48 -3.95,0.72 -4.46,2.57l-7.26 26.02c25.95,42.03 60.98,77.83 102.38,104.71l-5.8 -25.36c-0.43,-1.89 0.74,-3.9 2.59,-4.46l24.63 -7.59c-35.05,-23.17 -64.77,-53.73 -86.93,-89.5z"/>
     <path class="fil0" d="M36.27 483.79l7.65 -24.83c0.57,-1.84 2.58,-3.01 4.47,-2.57l25.18 5.77c-18.33,-36.56 -29.16,-77.51 -30.47,-120.87l-18.69 -18.24c-1.39,-1.35 -3.77,-1.34 -5.15,0l-19.19 18.79c1.41,51.03 14.3,99.17 36.2,141.96z"/>
    </g>
    <path class="fil0" d="M323.63 43.03l18.26 -18.73c1.35,-1.37 1.35,-3.77 -0,-5.15l-18.77 -19.15c-48.07,1.29 -96.45,13.07 -141.76,36.24l24.62 7.59c1.83,0.56 2.99,2.57 2.57,4.46l-5.8 25.37c38.7,-19.45 79.91,-29.41 120.88,-30.63z"/>
    <path class="fil0" d="M341.47 621.92l-18.1 18.56c-1.35,1.37 -1.35,3.77 0,5.15l18.93 19.32c48.04,-1.38 96.39,-13.2 141.65,-36.4l-24.66 -7.6c-1.83,-0.56 -2.99,-2.57 -2.57,-4.46l5.8 -25.32c-38.74,19.51 -80.02,29.51 -121.03,30.76z"/>
    <path class="fil0" d="M43.03 341.17l-18.48 -18.03c-1.4,-1.36 -3.79,-1.34 -5.15,-0l-19.4 18.99c1.34,48.08 13.18,96.49 36.4,141.8l7.67 -24.86c0.56,-1.84 2.58,-3.01 4.46,-2.57l25.13 5.75c-19.48,-38.75 -29.45,-80.05 -30.63,-121.06z"/>
    <path class="fil0" d="M513.51 53.42l5.7 24.98c0.43,1.89 -0.75,3.89 -2.58,4.46l-24.98 7.7c34.16,22.43 64.03,52.45 86.87,89.29l25.56 6.5c1.86,0.48 3.94,-0.73 4.46,-2.57l7.15 -25.65c-26.71,-43.42 -61.89,-78.64 -102.18,-104.73z"/>
    <path class="fil0" d="M195.47 587.57l-24.9 7c-1.86,0.52 -3.06,2.6 -2.57,4.46l6.74 26.25c43.48,23.38 91.72,36.83 140.96,39.35l-17.66 -19.02c-1.31,-1.4 -1.32,-3.72 0.01,-5.13l17.57 -18.95c-41.97,-2.48 -83.05,-14.09 -120.14,-33.96z"/>
    <path class="fil0" d="M151.88 611.81l-5.81 -25.44c-0.45,-1.88 0.73,-3.89 2.58,-4.46l24.58 -7.57c-34.21,-22.5 -64.12,-52.57 -86.96,-89.53l-25.07 -6.38c-1.86,-0.49 -3.95,0.72 -4.46,2.57l-7.28 26.08c26.77,43.45 62.05,78.67 102.42,104.73z"/>
    <path class="fil0" d="M600.85 515.71l-14.25 3.25c-1.87,0.43 -3.89,-0.73 -4.46,-2.58l-4.66 -15.15c-2.05,-1.67 -4.05,-3.41 -6,-5.24 -22.09,32.35 -51.11,60.66 -86.39,82.52l-6.44 25.3c-0.47,1.87 0.73,3.94 2.57,4.46l25.87 7.22c41.41,-25.52 75.34,-58.78 100.99,-96.81 -2.44,-0.9 -4.86,-1.89 -7.23,-2.98z"/>
    <path class="fil0" d="M77.49 195.3l-7.05 -24.96c-0.52,-1.86 -2.6,-3.06 -4.46,-2.58l-26.16 6.72c-23.42,43.49 -36.92,91.73 -39.5,141.02l19.07 -17.71c1.42,-1.32 3.74,-1.31 5.16,0.01l18.89 17.53c2.54,-41.93 14.15,-82.96 34.05,-120.04z"/>
    <path class="fil0" d="M53.33 151.6l25.33 -5.79c1.88,-0.43 3.89,0.73 4.46,2.58l7.59 24.69c22.49,-34.15 52.55,-64.01 89.44,-86.82l6.45 -25.31c0.48,-1.88 -0.73,-3.94 -2.57,-4.46l-25.87 -7.22c-43.48,26.73 -78.74,61.97 -104.84,102.33z"/>
   </g>
  </g>
 </g>
</svg>
