<?xml version="1.0" encoding="UTF-8"?>
<!DOCTYPE svg PUBLIC "-//W3C//DTD SVG 1.1//EN" "http://www.w3.org/Graphics/SVG/1.1/DTD/svg11.dtd">
<!-- Creator: CorelDRAW 2021 (64-Bit) -->
<svg xmlns="http://www.w3.org/2000/svg" xml:space="preserve" width="25.9339mm" height="26.2384mm" version="1.1" style="shape-rendering:geometricPrecision; text-rendering:geometricPrecision; image-rendering:optimizeQuality; fill-rule:evenodd; clip-rule:evenodd"
viewBox="0 0 2610.37 2641.02"
 xmlns:xlink="http://www.w3.org/1999/xlink"
 xmlns:xodm="http://www.corel.com/coreldraw/odm/2003">
 <defs>
  <style type="text/css">
   <![CDATA[
    .fil0 {fill:white}
   ]]>
  </style>
 </defs>
 <g id="Layer_x0020_1">
  <metadata id="CorelCorpID_0Corel-Layer"/>
  <g id="_2271233805568">
   <path class="fil0" d="M1189.74 2486.05c16.87,66.28 84.37,77.57 151.61,96.6 47.79,13.52 154,51.51 195.08,56.82 110.34,14.24 80.51,-72.35 79.94,-167.12 -1.38,-227.22 57.86,-313.67 -353.54,-376.1 -104.67,-15.87 -78.14,71.18 -77.37,156.23 0.46,51.8 -6.22,192.27 4.29,233.57z"/>
   <path class="fil0" d="M636.76 1944.19c-19.97,93.55 -31.95,388.71 32.66,444.47 38.02,32.81 316.17,111.41 377.25,91.01 15.48,-46.23 41.45,-373.09 -40.97,-440.64 -46.98,-38.52 -313.17,-110.69 -368.95,-94.85z"/>
   <path class="fil0" d="M79.64 2183.83c20.91,69.6 79.11,78.22 148.1,97.45 261.78,73.01 278.15,112.81 276.05,-97.28 -0.7,-69.65 10.75,-163.28 -7.11,-226.99 -20.58,-73.49 -69.43,-85.39 -143.52,-103.56 -294.02,-72.12 -282.19,-114.49 -280.37,96.78 0.46,54.53 -6.54,189.05 6.85,233.6z"/>
   <path class="fil0" d="M492.46 1733.88c24.95,-105.32 32.47,-377.79 -38.33,-435.01 -31.64,-25.59 -328.99,-117.38 -361.97,-89.61 -28.66,24.14 -50.22,383.25 28.07,437.88 50.2,35.04 317.47,102 372.23,86.74z"/>
   <path class="fil0" d="M636.76 1339.75c-21.58,101.09 -32.42,380.23 36.43,440.98 44.36,39.13 310.39,114.21 376.82,97.83 15.96,-77.06 20.38,-323.94 -5.86,-384.7 -25.31,-45.72 -305.12,-173.82 -407.39,-154.1z"/>
   <path class="fil0" d="M1185.55 1537.42c0.18,130.92 -34.8,349.3 60.62,412.17 50.88,33.52 304.75,89.85 359.01,73.04 32.94,-131.81 71.88,-597.36 -228.6,-462.71 -103.87,46.53 -100.64,3.28 -191.03,-22.5z"/>
   <path class="fil0" d="M1242.76 1439.71c13.55,-265.82 35.52,-396.78 -126.15,-473.37 -60.65,-28.74 -172.29,-83.4 -242.14,-74.85 0,132.57 -28.29,327.75 47.19,407.11 38.3,40.26 247.14,151.52 321.1,141.11z"/>
   <path class="fil0" d="M1371.64 1439.71c75.39,11.36 259.15,-84.11 313.73,-134.49 95.56,-88.2 54.76,-389.5 42.47,-401.57 -31.84,-31.27 -268.77,75.5 -311.29,118.85 -77.44,78.93 -54.21,289.29 -44.9,417.21z"/>
   <path class="fil0" d="M379.92 727.66c0,289.14 -33.4,323.81 142.98,405.69 53.61,24.88 164,88.86 223.54,84.47l4.39 -284.1c-0.24,-133.92 -123.87,-157.15 -275.18,-220.29 -47.36,-19.77 -95.73,-53.6 -95.73,14.23z"/>
   <path class="fil0" d="M1863.57 1226.02c65.89,1.31 267.88,-103.24 308.77,-134.95 89.34,-69.3 72.42,-261.01 58.28,-387.02 -54.67,-5.66 -274.12,90.01 -312.92,119.34 -85.22,64.47 -54.13,272.74 -54.13,402.63z"/>
   <path class="fil0" d="M1741.65 1989.78c189.18,-100.5 292.01,-263.34 240.04,-569.73 -270.24,110.61 -255.83,231.79 -240.04,569.73z"/>
   <path class="fil0" d="M1746.31 2534.62c27.66,-40.83 73.67,-60.09 108.98,-98.17 136.49,-147.14 156.84,-270.17 127.52,-495.49 -79.11,43.89 -178.71,119.31 -216.84,200.3 -34.39,73.09 -38.02,302.35 -19.66,393.36z"/>
   <path class="fil0" d="M18.74 542.65c-23.58,65.56 -29.56,262.06 9.67,329.9 24.28,41.96 157.62,123.93 227.29,129.59 2.3,-178.87 31.54,-339.55 -78.64,-400.58 -33.08,-18.32 -126.79,-61.08 -158.32,-58.91z"/>
   <path class="fil0" d="M2358.12 992.49c63.79,-4.9 201.53,-78.18 227.86,-119.09 39.13,-60.85 19.41,-239.67 19.41,-326.56 -69.66,5.06 -204.07,57.16 -232.97,112.05 -34.84,66.16 -14.3,246.3 -14.3,333.61z"/>
   <path class="fil0" d="M547.61 631.61c224.15,119.66 402.9,130.03 627.42,-0.21 -51.1,-42.4 -230.44,-104.32 -314.47,-102.24 -92.76,2.3 -258.35,53.97 -312.96,102.45z"/>
   <path class="fil0" d="M1017.7 810.09c41.3,36.08 224,101.08 296.09,101.22 106.73,0.22 256.5,-49.22 320.29,-101.22 -9.45,-6.72 -3.88,-4.62 -27.67,-16.76 -13.72,-7 -24.32,-11.25 -39.12,-17.09 -88.21,-34.7 -148.61,-68.5 -239.55,-66.88 -83.82,1.49 -260.7,55.16 -310.04,100.73z"/>
   <path class="fil0" d="M78.83 452.16c73.08,32.12 225.26,100.18 314.42,97.51 128.63,-3.85 218.09,-62.31 319.76,-94.13l-65.07 -37.52c-78.58,-31.34 -171.66,-70.96 -254.36,-68.48 -97.33,2.91 -259.21,50.68 -314.74,102.62z"/>
   <path class="fil0" d="M1002.99 451.1c57.82,33.27 217.45,99.7 297.22,99.89 91.65,0.21 254.61,-50.18 314.69,-98.08 -143.54,-126.3 -440.83,-127.07 -611.91,-1.81z"/>
   <path class="fil0" d="M1469.21 631.51c175.36,119.64 444.31,131.61 606.39,0l-137.52 -60.96c-179.68,-69.24 -379.12,-25.15 -468.87,60.96z"/>
   <path class="fil0" d="M538.66 279.8c98.21,25.61 199.2,92.71 308.15,91.26 96.72,-1.29 250,-57.53 312.55,-98.39 -131.78,-96.05 -324.82,-119.46 -475.52,-65.49 -56.21,20.12 -112.57,33.87 -145.18,72.61z"/>
   <path class="fil0" d="M996.24 95.74c158.92,121.45 468.89,131.8 606.59,-1.66 -77.86,-27.66 -210.84,-95.67 -302.2,-94.05 -97.07,1.73 -245.33,47.68 -304.39,95.71z"/>
   <path class="fil0" d="M1455.31 274.33c95.3,77.77 293.67,127.38 460.16,65.97l108.39 -43.29c37.76,-22.14 14.95,-5.27 35.84,-28.14 -97.63,-27.35 -196.05,-92.98 -305.87,-90.64 -84.04,1.79 -248.86,51.78 -298.52,96.11z"/>
   <path class="fil0" d="M1912.92 452.92c10.98,7.43 5.27,5.05 28.86,16.84 186.9,93.43 299.12,104.95 498.71,24.86 61.7,-24.76 56.09,-26.49 74.19,-49.53 -176.35,-51.06 -242.07,-134 -456.59,-58.86l-136.45 60.11c-2.05,1.36 -5.99,4.2 -8.73,6.58z"/>
   <path class="fil0" d="M2110.85 1664.76c200.45,-73.95 183.16,-216.77 183.45,-461.75 -73.09,22.95 -153.8,82.11 -174.77,151.2 -17.65,58.17 -8.69,239.04 -8.69,310.55z"/>
   <path class="fil0" d="M2110.85 2158.33c58.36,-33.85 118.04,-99.73 157.37,-173.84 43.27,-81.55 25.96,-211.67 26.08,-312.58 -196.99,96.99 -183.45,218.85 -183.45,486.42z"/>
   <path class="fil0" d="M2421.97 1789.1c24.21,-15.75 7.46,-3.13 26.8,-21.43l41.88 -55.92c67.1,-118.71 50.86,-194.7 50.86,-329.51 -147.17,64.9 -119.55,274.42 -119.55,406.87z"/>
   <path class="fil0" d="M2422.14 1079.36l-0.2 282.85c118.55,-66.02 119.42,-191.84 119.64,-362.42 -49.27,20.28 -69.28,53.2 -119.44,79.57z"/>
  </g>
 </g>
</svg>
