<?xml version="1.0" encoding="UTF-8"?>
<!DOCTYPE svg PUBLIC "-//W3C//DTD SVG 1.1//EN" "http://www.w3.org/Graphics/SVG/1.1/DTD/svg11.dtd">
<!-- Creator: CorelDRAW 2021 (64-Bit) -->
<svg xmlns="http://www.w3.org/2000/svg" xml:space="preserve" width="26.7471mm" height="26.709mm" version="1.1" style="shape-rendering:geometricPrecision; text-rendering:geometricPrecision; image-rendering:optimizeQuality; fill-rule:evenodd; clip-rule:evenodd"
viewBox="0 0 1229.6 1227.85"
 xmlns:xlink="http://www.w3.org/1999/xlink"
 xmlns:xodm="http://www.corel.com/coreldraw/odm/2003">
 <defs>
  <style type="text/css">
   <![CDATA[
    .fil0 {fill:white}
   ]]>
  </style>
 </defs>
 <g id="Layer_x0020_1">
  <metadata id="CorelCorpID_0Corel-Layer"/>
  <path class="fil0" d="M1210.04 460.68l-132.77 76.66 -135.83 0c11.1,47.2 11.89,96.38 2.07,143.94 -0.03,0.14 -0.06,0.28 -0.08,0.41l118.06 68.17 152.85 0c21.78,-95.52 20.17,-194.32 -4.3,-289.17zm-157.63 -278.18l-76.07 131.77 -118.62 68.48c33.52,35.03 58.96,76.9 74.65,123.01 0.05,0.15 0.1,0.3 0.15,0.45l136.42 0 132.28 -76.38c-29.28,-93.38 -80.09,-177.9 -148.8,-247.33zm-344.65 109.64c46.4,13.33 89.55,36.6 126.25,68.14 0.05,0.04 0.09,0.08 0.14,0.12l119.39 -68.92 75.74 -131.18c-71.82,-65.35 -158.33,-112.96 -251.9,-138.61l0 149.87 -69.62 120.59zm-247.54 -272.03l73.51 127.32 0 142.01c46.62,-11.79 95.03,-13.47 142.38,-4.75l70.14 -121.48 0 -149.15c-94.54,-20.66 -192.4,-18.47 -286.03,6.05zm42.38 278.81l0 -143.15 -73.17 -126.74c-92.03,29.23 -175.36,79.4 -244.03,147.01l125.27 72.32 72.2 125.07c34.1,-33.07 74.82,-58.44 119.73,-74.52zm-141.96 98.28l-72.77 -126.04 -124.75 -72.02c-64.74,70.78 -112.19,155.97 -138.29,248.18l143.11 0 126.39 72.98c13.2,-45.13 35.81,-87.16 66.3,-123.09zm-75.63 157.35l-127.15 -73.4 -142.71 -0c-21.3,93.74 -20.06,190.78 3.2,283.96l123.74 -71.44 146.17 0c-10.81,-45.62 -11.98,-92.98 -3.25,-139.11zm13.98 167.55l-146.81 0 -123.47 71.29c28.15,92.28 77.26,176.12 143.97,245.52l72.09 -124.87 125.55 -72.48c-31.9,-34.32 -56.17,-74.92 -71.33,-119.45zm94.47 142.04l-125.89 72.69 -71.99 124.68c70.43,65.97 155.64,114.59 248.14,141.67l0 -146.43 71.38 -123.64c-44.85,-14.17 -86.38,-37.7 -121.65,-68.96zm152.84 77.2l-71.44 123.74 0 146.36c94.71,22.41 192.72,21.77 287.09,-1.42l-74.57 -129.16 0 -140.08c-46.36,10.17 -94.58,10.45 -141.07,0.56zm172.2 -8.99l0 140.17 74.47 128.99c93.64,-28.2 178.66,-77.93 248.83,-145.74l-131.37 -75.84 -68.79 -119.14c-35.38,32.44 -77.27,56.8 -123.15,71.57zm145.86 -94.51l68.87 119.29 131.1 75.7c66.59,-71.46 115.37,-157.99 142.01,-251.85l-153.2 0 -117.81 -68.01c-14.35,46.16 -38.59,88.84 -70.98,124.88 0,0 -0,0 -0,0z"/>
  <g id="_2307076792368">
   <path class="fil0" d="M664.26 658.56c11.45,-2.52 21.64,-5.93 36.38,-5.93 -2.51,30.36 -41.23,39.71 -50.17,44.56 -7.21,3.95 -29.32,50.31 -34.65,60.37 -5.64,-4.13 -22.1,-38.27 -27.44,-47.26 -1.88,-3.23 -2.35,-5.39 -4.07,-8.09 -5.65,-8.98 -9.41,-4.13 -29.01,-15.45 -9.88,-5.57 -16.78,-11.86 -22.27,-22.1 21.64,0 26.66,4.31 38.41,12.04 -2.98,-12.76 -13.17,-29.11 -14.11,-40.25 7.52,5.03 13.96,12.21 22.89,17.25 47.04,26.59 77.46,-7.55 92.2,-17.25 -2.04,8.27 -5.81,12.21 -8.16,22.1zm22.27 -40.25l-129.2 18.15 129.2 -18.15zm0 0c12.38,6.47 13.8,5.93 23.68,16.54 20.38,21.91 12.23,40.25 23.36,47.43 1.41,0.9 4.55,1.98 6.59,3.41 19.91,13.66 20.07,67.74 -21.33,67.74 -30.73,0 -42.34,-50.31 -14.74,-69.18 2.98,-2.16 7.53,-3.77 10.67,-5.39 -5.49,-23.9 -12.7,-35.04 -32.3,-44.39 1.26,-5.57 2.67,-10.6 4.08,-16.17zm-185.8 56.42c0,11.5 23.83,17.97 39.83,51.21 4.7,9.7 2.82,13.12 7.37,32.88 5.49,22.65 15.52,81.58 -22.89,81.58 -13.96,0 -18.19,1.44 -18.19,-12.21 0,-11.5 17.09,-8.09 28.22,-8.09 6.59,-13.65 3.92,-35.04 1.1,-49.59 -2.35,-13.29 -13.48,-35.4 -21.01,-45.64 -26.81,-36.65 -43.43,-2.33 -54.25,19.23 -5.48,11.14 -14.74,11.5 -14.74,53.9l1.72 16.71c1.88,5.75 2.36,5.75 5.96,6.11 8.47,1.26 13.18,-1.26 24.62,1.26 4.39,18.33 -2.04,18.33 -20.07,18.33 -9.88,0 2.98,1.08 -8.78,-3.41 -4.86,-1.98 -8.47,-3.24 -11.92,-8.27 -13.96,-19.95 0.78,-70.98 2.19,-81.58 1.26,-9.7 -0.79,-7.01 2.82,-15.28 21.17,-47.44 37.01,-34.86 45.31,-63.79 2.98,-10.61 5.65,-17.07 11.45,-24.8 9.57,-12.58 24.62,-27.13 45.63,-27.13l0 16.17c-11.6,1.08 -22.26,7.01 -28.54,13.84 -3.76,4.13 -15.83,22.28 -15.83,28.57zm171.69 -195.86c4.85,2.51 30.41,6.11 38.26,6.11 0,128.11 -98.94,217.78 -163.86,109.43 -11.76,-19.58 -25.87,-58.58 -25.87,-89.3 28.7,-2.34 76.05,-21.92 102.07,-39.17 6.58,-4.31 11.29,-6.47 17.4,-10.96l33.86 -24.44c15.06,31.09 5.96,36.48 -1.88,48.34zm-218.11 183.82l24.14 0 -7.99 6.11c-15.83,10.42 -18.5,13.84 -29.79,26.59 -29.95,33.78 -42.96,71.7 -42.96,118.77 0,2.22 0.04,4.41 0.09,6.59 55.29,55.99 132.08,90.7 216.99,90.7 84.73,0 161.39,-34.56 216.66,-90.35 0.29,-4.17 0.42,-8.52 0.42,-13.05 0,-57.32 -33.39,-120.21 -82.79,-145.37 -1.42,-0.72 -3.61,-1.79 -5.33,-2.69 -4.07,-2.51 -2.2,-1.08 -4.86,-3.42 11.44,0.9 24.15,5.76 36.37,6.11 -13.01,-19.4 -29,-20.3 -40.14,-84.99 -12.55,-73.31 11.92,-161.18 -51.27,-231.43 -3.29,-3.59 -13.64,-10.96 -18.35,-13.83 -6.9,-4.13 -13.95,-7.55 -22.1,-10.24 -16.15,-5.57 -37.95,-5.57 -54.26,-1.08 -32.46,9.16 -51.27,30.36 -66.95,58.21 -4.39,8.09 -6.27,14.73 -9.09,23.18 -5.65,16.71 -9.57,33.96 -11.76,52.83 -7.21,58.04 4.71,110.15 -20.23,169.62 -11.13,26.6 -19.12,26.24 -26.81,37.73z"/>
   <path class="fil0" d="M704.72 713.19c0,33.6 32.29,24.79 32.29,5.93 0,-33.6 -32.29,-24.8 -32.29,-5.93z"/>
   <polygon class="fil0" points="664.26,658.56 662.22,658.56 663.95,660.9 "/>
  </g>
 </g>
</svg>
