<svg xmlns="http://www.w3.org/2000/svg" viewBox="188 340 234 64" width="234" height="64" shape-rendering="geometricPrecision">
  <g id="center_ring">
    <path d="M 188.00 365.00 L 188.00 372.00 L 189.00 373.00 L 190.00 376.00 L 194.00 380.00 L 195.00 380.00 L 198.00 383.00 L 199.00 383.00 L 200.00 384.00 L 201.00 384.00 L 202.00 385.00 L 203.00 385.00 L 204.00 386.00 L 205.00 386.00 L 210.00 389.00 L 212.00 389.00 L 213.00 390.00 L 215.00 390.00 L 216.00 391.00 L 218.00 391.00 L 219.00 392.00 L 221.00 392.00 L 222.00 393.00 L 225.00 393.00 L 226.00 394.00 L 229.00 394.00 L 230.00 395.00 L 233.00 395.00 L 234.00 396.00 L 238.00 396.00 L 239.00 397.00 L 243.00 397.00 L 244.00 398.00 L 249.00 398.00 L 250.00 399.00 L 256.00 399.00 L 257.00 400.00 L 264.00 400.00 L 265.00 401.00 L 276.00 401.00 L 277.00 402.00 L 303.00 402.00 L 304.00 403.00 L 305.00 402.00 L 332.00 402.00 L 333.00 401.00 L 343.00 401.00 L 344.00 400.00 L 352.00 400.00 L 353.00 399.00 L 359.00 399.00 L 360.00 398.00 L 365.00 398.00 L 366.00 397.00 L 370.00 397.00 L 371.00 396.00 L 375.00 396.00 L 376.00 395.00 L 379.00 395.00 L 380.00 394.00 L 383.00 394.00 L 384.00 393.00 L 387.00 393.00 L 388.00 392.00 L 390.00 392.00 L 391.00 391.00 L 393.00 391.00 L 394.00 390.00 L 396.00 390.00 L 399.00 388.00 L 401.00 388.00 L 402.00 387.00 L 403.00 387.00 L 404.00 386.00 L 405.00 386.00 L 406.00 385.00 L 409.00 384.00 L 411.00 382.00 L 412.00 382.00 L 415.00 379.00 L 416.00 379.00 L 417.00 378.00 L 417.00 377.00 L 420.00 374.00 L 420.00 372.00 L 421.00 371.00 L 421.00 365.00 L 420.00 364.00 L 420.00 363.00 L 418.00 361.00 L 418.00 360.00 L 414.00 356.00 L 413.00 356.00 L 411.00 354.00 L 410.00 354.00 L 409.00 353.00 L 408.00 353.00 L 407.00 352.00 L 406.00 352.00 L 405.00 351.00 L 404.00 351.00 L 399.00 348.00 L 397.00 348.00 L 396.00 347.00 L 394.00 347.00 L 391.00 345.00 L 388.00 345.00 L 387.00 344.00 L 385.00 344.00 L 384.00 343.00 L 381.00 343.00 L 380.00 342.00 L 377.00 342.00 L 376.00 341.00 L 372.00 341.00 L 371.00 340.00 L 371.00 341.00 L 370.00 342.00 L 370.00 344.00 L 371.00 344.00 L 372.00 345.00 L 376.00 345.00 L 377.00 346.00 L 379.00 346.00 L 380.00 347.00 L 383.00 347.00 L 384.00 348.00 L 386.00 348.00 L 387.00 349.00 L 389.00 349.00 L 390.00 350.00 L 391.00 350.00 L 392.00 351.00 L 394.00 351.00 L 395.00 352.00 L 398.00 353.00 L 400.00 355.00 L 401.00 355.00 L 406.00 360.00 L 406.00 362.00 L 407.00 363.00 L 406.00 364.00 L 406.00 366.00 L 401.00 371.00 L 400.00 371.00 L 398.00 373.00 L 397.00 373.00 L 394.00 375.00 L 392.00 375.00 L 389.00 377.00 L 387.00 377.00 L 386.00 378.00 L 384.00 378.00 L 383.00 379.00 L 380.00 379.00 L 379.00 380.00 L 376.00 380.00 L 375.00 381.00 L 372.00 381.00 L 371.00 382.00 L 367.00 382.00 L 366.00 383.00 L 361.00 383.00 L 360.00 384.00 L 354.00 384.00 L 353.00 385.00 L 346.00 385.00 L 345.00 386.00 L 335.00 386.00 L 334.00 387.00 L 314.00 387.00 L 313.00 388.00 L 296.00 388.00 L 295.00 387.00 L 275.00 387.00 L 274.00 386.00 L 264.00 386.00 L 263.00 385.00 L 256.00 385.00 L 255.00 384.00 L 249.00 384.00 L 248.00 383.00 L 243.00 383.00 L 242.00 382.00 L 238.00 382.00 L 237.00 381.00 L 234.00 381.00 L 233.00 380.00 L 230.00 380.00 L 229.00 379.00 L 226.00 379.00 L 225.00 378.00 L 223.00 378.00 L 222.00 377.00 L 220.00 377.00 L 219.00 376.00 L 217.00 376.00 L 216.00 375.00 L 215.00 375.00 L 214.00 374.00 L 213.00 374.00 L 212.00 373.00 L 209.00 372.00 L 203.00 366.00 L 203.00 365.00 L 202.00 364.00 L 202.00 362.00 L 203.00 361.00 L 203.00 360.00 L 209.00 354.00 L 210.00 354.00 L 211.00 353.00 L 212.00 353.00 L 217.00 350.00 L 219.00 350.00 L 220.00 349.00 L 222.00 349.00 L 223.00 348.00 L 225.00 348.00 L 226.00 347.00 L 228.00 347.00 L 229.00 346.00 L 232.00 346.00 L 233.00 345.00 L 237.00 345.00 L 238.00 344.00 L 238.00 340.00 L 237.00 340.00 L 236.00 341.00 L 233.00 341.00 L 232.00 342.00 L 229.00 342.00 L 228.00 343.00 L 225.00 343.00 L 224.00 344.00 L 221.00 344.00 L 220.00 345.00 L 218.00 345.00 L 217.00 346.00 L 215.00 346.00 L 214.00 347.00 L 212.00 347.00 L 207.00 350.00 L 205.00 350.00 L 204.00 351.00 L 201.00 352.00 L 196.00 356.00 L 195.00 356.00 L 190.00 361.00 L 190.00 362.00 Z" fill="#ffffff" fill-rule="evenodd"/>
  </g>
</svg>