<svg xmlns="http://www.w3.org/2000/svg" viewBox="250 482 127 119" width="127" height="119" shape-rendering="geometricPrecision">
  <g id="referral_authorization">
    <path d="M 322.00 554.00 L 321.00 555.00 L 321.00 556.00 L 322.00 556.00 Z M 260.00 554.00 L 259.00 555.00 L 259.00 556.00 L 260.00 556.00 Z M 341.00 552.00 L 339.00 554.00 L 339.00 556.00 L 341.00 558.00 L 342.00 557.00 L 343.00 557.00 L 343.00 556.00 L 344.00 555.00 L 343.00 554.00 L 343.00 553.00 L 342.00 553.00 Z M 302.00 552.00 L 301.00 553.00 L 301.00 555.00 L 303.00 555.00 L 303.00 553.00 Z M 293.00 552.00 L 291.00 554.00 L 291.00 556.00 L 293.00 558.00 L 294.00 557.00 L 295.00 557.00 L 295.00 556.00 L 296.00 555.00 L 295.00 554.00 L 295.00 553.00 L 294.00 553.00 Z M 348.00 550.00 L 352.00 554.00 L 352.00 555.00 L 353.00 555.00 L 353.00 551.00 L 354.00 550.00 L 355.00 551.00 L 355.00 559.00 L 354.00 560.00 L 350.00 556.00 L 350.00 555.00 L 349.00 555.00 L 349.00 559.00 L 348.00 560.00 L 347.00 559.00 L 347.00 551.00 Z M 340.00 550.00 L 343.00 550.00 L 346.00 553.00 L 346.00 557.00 L 343.00 560.00 L 340.00 560.00 L 339.00 559.00 L 338.00 559.00 L 336.00 556.00 L 336.00 554.00 L 337.00 553.00 L 337.00 552.00 Z M 334.00 550.00 L 335.00 550.00 L 336.00 551.00 L 336.00 559.00 L 335.00 560.00 L 334.00 560.00 L 333.00 559.00 L 333.00 551.00 Z M 326.00 550.00 L 331.00 550.00 L 332.00 551.00 L 331.00 552.00 L 330.00 552.00 L 330.00 559.00 L 329.00 560.00 L 328.00 559.00 L 328.00 553.00 L 325.00 551.00 Z M 311.00 551.00 L 312.00 550.00 L 317.00 550.00 L 318.00 551.00 L 314.00 557.00 L 315.00 558.00 L 318.00 558.00 L 318.00 556.00 L 320.00 553.00 L 320.00 551.00 L 321.00 550.00 L 322.00 550.00 L 324.00 552.00 L 324.00 554.00 L 326.00 557.00 L 326.00 559.00 L 325.00 560.00 L 323.00 558.00 L 320.00 558.00 L 320.00 559.00 L 319.00 560.00 L 312.00 560.00 L 311.00 559.00 L 311.00 558.00 L 312.00 557.00 L 312.00 556.00 L 313.00 555.00 L 314.00 552.00 L 312.00 552.00 Z M 308.00 550.00 L 309.00 550.00 L 310.00 551.00 L 310.00 559.00 L 309.00 560.00 L 308.00 560.00 L 307.00 559.00 L 307.00 551.00 Z M 300.00 550.00 L 303.00 550.00 L 306.00 553.00 L 306.00 554.00 L 305.00 555.00 L 305.00 558.00 L 306.00 559.00 L 305.00 560.00 L 304.00 560.00 L 302.00 557.00 L 300.00 560.00 L 299.00 559.00 L 299.00 551.00 Z M 292.00 550.00 L 295.00 550.00 L 298.00 553.00 L 298.00 557.00 L 295.00 560.00 L 292.00 560.00 L 291.00 559.00 L 290.00 559.00 L 288.00 556.00 L 288.00 554.00 L 289.00 553.00 L 289.00 552.00 Z M 281.00 550.00 L 282.00 551.00 L 282.00 554.00 L 285.00 554.00 L 285.00 551.00 L 286.00 550.00 L 287.00 550.00 L 288.00 551.00 L 288.00 559.00 L 287.00 560.00 L 286.00 560.00 L 285.00 559.00 L 285.00 556.00 L 283.00 556.00 L 282.00 557.00 L 282.00 559.00 L 281.00 560.00 L 280.00 559.00 L 280.00 551.00 Z M 273.00 550.00 L 278.00 550.00 L 279.00 551.00 L 278.00 552.00 L 277.00 552.00 L 277.00 559.00 L 276.00 560.00 L 275.00 559.00 L 275.00 553.00 L 272.00 551.00 Z M 265.00 550.00 L 266.00 551.00 L 266.00 556.00 L 268.00 558.00 L 269.00 557.00 L 269.00 551.00 L 270.00 550.00 L 271.00 551.00 L 271.00 558.00 L 269.00 560.00 L 266.00 560.00 L 264.00 558.00 L 264.00 551.00 Z M 259.00 550.00 L 260.00 550.00 L 262.00 552.00 L 262.00 554.00 L 264.00 557.00 L 264.00 559.00 L 263.00 560.00 L 261.00 558.00 L 258.00 558.00 L 258.00 559.00 L 257.00 560.00 L 256.00 560.00 L 255.00 559.00 L 256.00 558.00 L 256.00 556.00 L 257.00 555.00 L 257.00 554.00 L 258.00 553.00 L 258.00 551.00 Z M 334.00 537.00 L 334.00 538.00 L 335.00 539.00 L 336.00 538.00 L 335.00 537.00 Z M 317.00 535.00 L 316.00 536.00 L 316.00 537.00 L 317.00 537.00 Z M 308.00 533.00 L 307.00 534.00 L 307.00 536.00 L 309.00 536.00 L 309.00 534.00 Z M 274.00 533.00 L 273.00 534.00 L 273.00 536.00 L 275.00 536.00 L 275.00 534.00 Z M 334.00 531.00 L 336.00 531.00 L 338.00 533.00 L 337.00 536.00 L 338.00 535.00 L 339.00 535.00 L 340.00 536.00 L 340.00 537.00 L 339.00 538.00 L 339.00 539.00 L 340.00 540.00 L 339.00 541.00 L 338.00 541.00 L 337.00 540.00 L 336.00 541.00 L 334.00 541.00 L 332.00 539.00 L 332.00 536.00 L 333.00 535.00 L 333.00 532.00 Z M 323.00 531.00 L 324.00 532.00 L 324.00 538.00 L 325.00 539.00 L 327.00 539.00 L 328.00 540.00 L 327.00 541.00 L 323.00 541.00 L 322.00 540.00 L 322.00 532.00 Z M 316.00 531.00 L 317.00 531.00 L 319.00 533.00 L 319.00 535.00 L 321.00 538.00 L 321.00 540.00 L 320.00 541.00 L 318.00 539.00 L 315.00 539.00 L 315.00 540.00 L 314.00 541.00 L 313.00 541.00 L 312.00 540.00 L 313.00 539.00 L 313.00 537.00 L 314.00 536.00 L 314.00 535.00 L 315.00 534.00 L 315.00 532.00 Z M 306.00 531.00 L 309.00 531.00 L 312.00 534.00 L 312.00 535.00 L 311.00 536.00 L 311.00 539.00 L 312.00 540.00 L 311.00 541.00 L 310.00 541.00 L 308.00 538.00 L 306.00 541.00 L 305.00 540.00 L 305.00 532.00 Z M 300.00 531.00 L 304.00 531.00 L 305.00 532.00 L 304.00 533.00 L 302.00 533.00 L 301.00 534.00 L 301.00 535.00 L 303.00 535.00 L 304.00 536.00 L 301.00 538.00 L 302.00 539.00 L 304.00 539.00 L 305.00 540.00 L 304.00 541.00 L 300.00 541.00 L 299.00 540.00 L 299.00 532.00 Z M 297.00 531.00 L 298.00 532.00 L 297.00 533.00 L 295.00 533.00 L 294.00 534.00 L 294.00 535.00 L 296.00 535.00 L 297.00 536.00 L 294.00 538.00 L 294.00 540.00 L 293.00 541.00 L 292.00 540.00 L 292.00 532.00 L 293.00 531.00 Z M 291.00 531.00 L 292.00 532.00 L 291.00 533.00 L 289.00 533.00 L 288.00 534.00 L 288.00 535.00 L 290.00 535.00 L 291.00 536.00 L 288.00 538.00 L 288.00 540.00 L 287.00 541.00 L 286.00 540.00 L 286.00 532.00 L 287.00 531.00 Z M 280.00 531.00 L 284.00 531.00 L 285.00 532.00 L 284.00 533.00 L 282.00 533.00 L 281.00 534.00 L 281.00 535.00 L 283.00 535.00 L 284.00 536.00 L 281.00 538.00 L 282.00 539.00 L 284.00 539.00 L 285.00 540.00 L 284.00 541.00 L 280.00 541.00 L 279.00 540.00 L 279.00 532.00 Z M 272.00 531.00 L 275.00 531.00 L 278.00 534.00 L 278.00 535.00 L 277.00 536.00 L 277.00 539.00 L 278.00 540.00 L 277.00 541.00 L 276.00 541.00 L 274.00 538.00 L 272.00 541.00 L 271.00 540.00 L 271.00 532.00 Z M 348.00 482.00 L 344.00 482.00 L 343.00 483.00 L 340.00 483.00 L 339.00 484.00 L 335.00 484.00 L 334.00 485.00 L 330.00 485.00 L 329.00 486.00 L 322.00 486.00 L 321.00 487.00 L 311.00 487.00 L 310.00 488.00 L 289.00 488.00 L 288.00 487.00 L 277.00 487.00 L 276.00 486.00 L 269.00 486.00 L 269.00 488.00 L 267.00 491.00 L 267.00 493.00 L 266.00 494.00 L 266.00 496.00 L 265.00 497.00 L 265.00 498.00 L 264.00 499.00 L 264.00 501.00 L 262.00 504.00 L 262.00 506.00 L 261.00 507.00 L 261.00 509.00 L 260.00 510.00 L 260.00 511.00 L 259.00 512.00 L 259.00 514.00 L 257.00 517.00 L 257.00 519.00 L 256.00 520.00 L 256.00 522.00 L 255.00 523.00 L 255.00 524.00 L 254.00 525.00 L 254.00 527.00 L 252.00 530.00 L 252.00 535.00 L 251.00 536.00 L 251.00 568.00 L 250.00 569.00 L 250.00 596.00 L 255.00 596.00 L 256.00 597.00 L 262.00 597.00 L 263.00 598.00 L 271.00 598.00 L 272.00 599.00 L 286.00 599.00 L 287.00 600.00 L 312.00 600.00 L 313.00 599.00 L 327.00 599.00 L 328.00 598.00 L 336.00 598.00 L 337.00 597.00 L 343.00 597.00 L 344.00 596.00 L 350.00 596.00 L 351.00 595.00 L 355.00 595.00 L 356.00 594.00 L 360.00 594.00 L 361.00 593.00 L 365.00 593.00 L 366.00 592.00 L 369.00 592.00 L 370.00 591.00 L 373.00 591.00 L 374.00 590.00 L 376.00 590.00 L 376.00 589.00 L 375.00 588.00 L 375.00 586.00 L 372.00 581.00 L 372.00 579.00 L 369.00 574.00 L 369.00 572.00 L 366.00 567.00 L 366.00 565.00 L 363.00 560.00 L 363.00 558.00 L 360.00 553.00 L 360.00 551.00 L 357.00 546.00 L 357.00 544.00 L 354.00 539.00 L 354.00 537.00 L 351.00 532.00 L 351.00 524.00 L 350.00 523.00 L 350.00 509.00 L 349.00 508.00 L 349.00 495.00 L 348.00 494.00 Z" fill="#ffffff" fill-rule="evenodd"/>
    <path d="M 322.00 553.00 L 323.00 554.00 L 323.00 556.00 L 322.00 557.00 L 321.00 557.00 L 320.00 556.00 L 320.00 555.00 Z M 260.00 553.00 L 261.00 554.00 L 261.00 556.00 L 260.00 557.00 L 259.00 557.00 L 258.00 556.00 L 258.00 555.00 Z M 341.00 551.00 L 342.00 552.00 L 343.00 552.00 L 345.00 555.00 L 344.00 556.00 L 344.00 557.00 L 341.00 559.00 L 338.00 556.00 L 338.00 554.00 Z M 302.00 551.00 L 304.00 553.00 L 304.00 555.00 L 303.00 556.00 L 301.00 556.00 L 300.00 555.00 L 300.00 553.00 Z M 293.00 551.00 L 294.00 552.00 L 295.00 552.00 L 297.00 555.00 L 296.00 556.00 L 296.00 557.00 L 293.00 559.00 L 290.00 556.00 L 290.00 554.00 Z M 348.00 551.00 L 348.00 559.00 L 348.00 555.00 L 349.00 554.00 L 350.00 554.00 L 351.00 555.00 L 351.00 556.00 L 354.00 559.00 L 354.00 551.00 L 354.00 555.00 L 353.00 556.00 L 352.00 556.00 L 351.00 555.00 L 351.00 554.00 Z M 338.00 552.00 L 338.00 553.00 L 337.00 554.00 L 337.00 556.00 L 338.00 557.00 L 338.00 558.00 L 339.00 558.00 L 340.00 559.00 L 343.00 559.00 L 345.00 557.00 L 345.00 553.00 L 343.00 551.00 L 340.00 551.00 L 339.00 552.00 Z M 334.00 551.00 L 334.00 559.00 L 335.00 559.00 L 335.00 551.00 Z M 326.00 551.00 L 327.00 551.00 L 329.00 553.00 L 329.00 559.00 L 329.00 552.00 L 330.00 551.00 L 331.00 551.00 Z M 312.00 551.00 L 314.00 551.00 L 315.00 552.00 L 315.00 553.00 L 314.00 554.00 L 314.00 555.00 L 313.00 556.00 L 312.00 559.00 L 319.00 559.00 L 319.00 558.00 L 320.00 557.00 L 323.00 557.00 L 325.00 559.00 L 325.00 557.00 L 324.00 556.00 L 324.00 555.00 L 323.00 554.00 L 323.00 552.00 L 322.00 551.00 L 321.00 551.00 L 321.00 553.00 L 320.00 554.00 L 320.00 555.00 L 319.00 556.00 L 319.00 558.00 L 318.00 559.00 L 315.00 559.00 L 313.00 557.00 L 317.00 551.00 Z M 308.00 551.00 L 308.00 559.00 L 309.00 559.00 L 309.00 551.00 Z M 300.00 551.00 L 300.00 559.00 L 300.00 558.00 L 302.00 556.00 L 304.00 558.00 L 304.00 559.00 L 305.00 559.00 L 304.00 558.00 L 304.00 555.00 L 305.00 554.00 L 305.00 553.00 L 303.00 551.00 Z M 290.00 552.00 L 290.00 553.00 L 289.00 554.00 L 289.00 556.00 L 290.00 557.00 L 290.00 558.00 L 291.00 558.00 L 292.00 559.00 L 295.00 559.00 L 297.00 557.00 L 297.00 553.00 L 295.00 551.00 L 292.00 551.00 L 291.00 552.00 Z M 281.00 551.00 L 281.00 559.00 L 281.00 557.00 L 283.00 555.00 L 285.00 555.00 L 286.00 556.00 L 286.00 559.00 L 287.00 559.00 L 287.00 551.00 L 286.00 551.00 L 286.00 554.00 L 285.00 555.00 L 282.00 555.00 L 281.00 554.00 Z M 273.00 551.00 L 274.00 551.00 L 276.00 553.00 L 276.00 559.00 L 276.00 552.00 L 277.00 551.00 L 278.00 551.00 Z M 265.00 551.00 L 265.00 558.00 L 266.00 559.00 L 269.00 559.00 L 270.00 558.00 L 270.00 551.00 L 270.00 557.00 L 268.00 559.00 L 265.00 556.00 Z M 259.00 551.00 L 259.00 553.00 L 258.00 554.00 L 258.00 555.00 L 257.00 556.00 L 257.00 558.00 L 256.00 559.00 L 257.00 559.00 L 257.00 558.00 L 258.00 557.00 L 261.00 557.00 L 263.00 559.00 L 263.00 557.00 L 261.00 554.00 L 261.00 552.00 L 260.00 551.00 Z M 333.00 537.00 L 334.00 536.00 L 335.00 536.00 L 337.00 538.00 L 335.00 540.00 L 333.00 538.00 Z M 317.00 534.00 L 318.00 535.00 L 318.00 537.00 L 317.00 538.00 L 316.00 538.00 L 315.00 537.00 L 315.00 536.00 Z M 334.00 534.00 L 335.00 533.00 L 336.00 534.00 L 335.00 535.00 Z M 308.00 532.00 L 310.00 534.00 L 310.00 536.00 L 309.00 537.00 L 307.00 537.00 L 306.00 536.00 L 306.00 534.00 Z M 274.00 532.00 L 276.00 534.00 L 276.00 536.00 L 275.00 537.00 L 273.00 537.00 L 272.00 536.00 L 272.00 534.00 Z M 334.00 532.00 L 334.00 535.00 L 333.00 536.00 L 333.00 539.00 L 334.00 540.00 L 336.00 540.00 L 337.00 539.00 L 338.00 540.00 L 339.00 540.00 L 338.00 539.00 L 339.00 536.00 L 338.00 536.00 L 337.00 537.00 L 336.00 536.00 L 337.00 533.00 L 336.00 532.00 Z M 323.00 532.00 L 323.00 540.00 L 327.00 540.00 L 325.00 540.00 L 323.00 538.00 Z M 316.00 532.00 L 316.00 534.00 L 315.00 535.00 L 315.00 536.00 L 314.00 537.00 L 314.00 539.00 L 313.00 540.00 L 314.00 540.00 L 314.00 539.00 L 315.00 538.00 L 318.00 538.00 L 320.00 540.00 L 320.00 538.00 L 318.00 535.00 L 318.00 533.00 L 317.00 532.00 Z M 306.00 532.00 L 306.00 540.00 L 306.00 539.00 L 308.00 537.00 L 310.00 539.00 L 310.00 540.00 L 311.00 540.00 L 310.00 539.00 L 310.00 536.00 L 311.00 535.00 L 311.00 534.00 L 309.00 532.00 Z M 300.00 532.00 L 300.00 540.00 L 304.00 540.00 L 302.00 540.00 L 300.00 538.00 L 302.00 536.00 L 303.00 536.00 L 301.00 536.00 L 300.00 535.00 L 300.00 534.00 L 302.00 532.00 L 304.00 532.00 Z M 297.00 532.00 L 293.00 532.00 L 293.00 540.00 L 293.00 538.00 L 295.00 536.00 L 296.00 536.00 L 294.00 536.00 L 293.00 535.00 L 293.00 534.00 L 295.00 532.00 Z M 291.00 532.00 L 287.00 532.00 L 287.00 540.00 L 287.00 538.00 L 289.00 536.00 L 290.00 536.00 L 288.00 536.00 L 287.00 535.00 L 287.00 534.00 L 289.00 532.00 Z M 280.00 532.00 L 280.00 540.00 L 284.00 540.00 L 282.00 540.00 L 280.00 538.00 L 282.00 536.00 L 283.00 536.00 L 281.00 536.00 L 280.00 535.00 L 280.00 534.00 L 282.00 532.00 L 284.00 532.00 Z M 272.00 532.00 L 272.00 540.00 L 272.00 539.00 L 274.00 537.00 L 276.00 539.00 L 276.00 540.00 L 277.00 540.00 L 276.00 539.00 L 276.00 536.00 L 277.00 535.00 L 277.00 534.00 L 275.00 532.00 Z" fill="#00b5d6" fill-rule="evenodd"/>
  </g>
</svg>